<svg width="70" height="70" viewBox="0 0 70 70" fill="none" xmlns="http://www.w3.org/2000/svg">
<g clip-path="url(#clip0_430_168)">
<path d="M11.6667 37.9167H20.4167V43.75H11.6667V37.9167ZM26.25 43.75H35V37.9167H26.25V43.75ZM11.6667 55.4167H20.4167V49.5833H11.6667V55.4167ZM26.25 55.4167H35V49.5833H26.25V55.4167ZM11.6667 20.4167H20.4167V14.5833H11.6667V20.4167ZM26.25 20.4167H35V14.5833H26.25V20.4167ZM11.6667 32.0833H20.4167V26.25H11.6667V32.0833ZM26.25 32.0833H35V26.25H26.25V32.0833ZM70 23.3333V70H0V8.75C0 6.42936 0.921872 4.20376 2.56282 2.56282C4.20376 0.921872 6.42936 0 8.75 0L37.9167 0C40.2373 0 42.4629 0.921872 44.1039 2.56282C45.7448 4.20376 46.6667 6.42936 46.6667 8.75V14.5833H61.25C63.5706 14.5833 65.7962 15.5052 67.4372 17.1462C69.0781 18.7871 70 21.0127 70 23.3333ZM40.8333 8.75C40.8333 7.97645 40.526 7.23459 39.9791 6.68761C39.4321 6.14062 38.6902 5.83333 37.9167 5.83333H8.75C7.97645 5.83333 7.23459 6.14062 6.68761 6.68761C6.14062 7.23459 5.83333 7.97645 5.83333 8.75V64.1667H40.8333V8.75ZM64.1667 23.3333C64.1667 22.5598 63.8594 21.8179 63.3124 21.2709C62.7654 20.724 62.0235 20.4167 61.25 20.4167H46.6667V64.1667H64.1667V23.3333ZM52.5 43.75H58.3333V37.9167H52.5V43.75ZM52.5 55.4167H58.3333V49.5833H52.5V55.4167ZM52.5 32.0833H58.3333V26.25H52.5V32.0833Z" fill="white"/>
</g>
<defs>
<clipPath id="clip0_430_168">
<rect width="70" height="70" fill="white"/>
</clipPath>
</defs>
</svg>
