<svg width="34" height="34" viewBox="0 0 34 34" fill="none" xmlns="http://www.w3.org/2000/svg">
<g clip-path="url(#clip0_304_97)">
<path d="M34 16.2917C34 13.5575 31.7758 11.3333 29.0417 11.3333H28.3333V6.375C28.3333 5.984 28.016 5.66667 27.625 5.66667C27.234 5.66667 26.9167 5.984 26.9167 6.375V11.3333H21.6424L16.4319 2.99625C15.2589 1.12058 13.2387 0 11.0273 0H7.79308C5.84092 0 4.25142 1.5895 4.25142 3.54167V11.3333H3.54308C1.59092 11.3333 0.00141667 12.9228 0.00141667 14.875V16.2917C0.00141667 16.6827 0.31875 17 0.70975 17C1.10075 17 1.41808 16.6827 1.41808 16.2917V14.875C1.41808 13.7034 2.3715 12.75 3.54308 12.75H29.0417C30.9938 12.75 32.5833 14.3395 32.5833 16.2917C32.5833 17.0538 32.3312 17.8075 31.8736 18.4195L28.2087 23.3566C27.404 22.916 26.4803 22.6667 25.5 22.6667C22.3748 22.6667 19.8333 25.2082 19.8333 28.3333C19.8333 31.4585 22.3748 34 25.5 34C28.6252 34 31.1667 31.4585 31.1667 28.3333C31.1667 26.6971 30.4697 25.2209 29.3562 24.1853L33.0069 19.2667C33.6472 18.4138 34 17.3584 34 16.2917ZM5.66667 3.54167C5.66667 2.37008 6.62008 1.41667 7.79167 1.41667H11.0259C12.7457 1.41667 14.3183 2.28792 15.2306 3.74708L19.9722 11.3333H5.66667V3.54167ZM29.75 28.3333C29.75 30.6765 27.8432 32.5833 25.5 32.5833C23.1568 32.5833 21.25 30.6765 21.25 28.3333C21.25 25.9902 23.1568 24.0833 25.5 24.0833C27.8432 24.0833 29.75 25.9902 29.75 28.3333ZM16.2917 24.7917H14.8353C14.6993 23.5634 14.212 22.44 13.4782 21.5234L14.5095 20.4921C14.7857 20.2158 14.7857 19.7668 14.5095 19.4905C14.2332 19.2143 13.7842 19.2143 13.5079 19.4905L12.4766 20.5218C11.56 19.788 10.4352 19.3007 9.20833 19.1647V17.7083C9.20833 17.3173 8.891 17 8.5 17C8.109 17 7.79167 17.3173 7.79167 17.7083V19.1647C6.56342 19.3007 5.44 19.788 4.52342 20.5218L3.49208 19.4905C3.21583 19.2143 2.76675 19.2143 2.4905 19.4905C2.21425 19.7668 2.21425 20.2158 2.4905 20.4921L3.52183 21.5234C2.788 22.44 2.30067 23.5648 2.16467 24.7917H0.708333C0.317333 24.7917 0 25.109 0 25.5C0 25.891 0.317333 26.2083 0.708333 26.2083H2.16467C2.30067 27.4366 2.788 28.56 3.52183 29.4766L2.4905 30.5079C2.21425 30.7842 2.21425 31.2332 2.4905 31.5095C2.62933 31.6483 2.81067 31.7163 2.992 31.7163C3.17333 31.7163 3.35467 31.6469 3.4935 31.5095L4.52483 30.4782C5.44142 31.212 6.56625 31.6993 7.79308 31.8353V33.2917C7.79308 33.6827 8.11042 34 8.50142 34C8.89242 34 9.20975 33.6827 9.20975 33.2917V31.8353C10.438 31.6993 11.5614 31.212 12.478 30.4782L13.5093 31.5095C13.6482 31.6483 13.8295 31.7163 14.0108 31.7163C14.1922 31.7163 14.3735 31.6469 14.5123 31.5095C14.7886 31.2332 14.7886 30.7842 14.5123 30.5079L13.481 29.4766C14.2148 28.56 14.7022 27.4352 14.8382 26.2083H16.2945C16.6855 26.2083 17.0028 25.891 17.0028 25.5C17.0028 25.109 16.6855 24.7917 16.2945 24.7917H16.2917ZM8.5 30.4583C5.76583 30.4583 3.54167 28.2342 3.54167 25.5C3.54167 22.7658 5.76583 20.5417 8.5 20.5417C11.2342 20.5417 13.4583 22.7658 13.4583 25.5C13.4583 28.2342 11.2342 30.4583 8.5 30.4583Z" fill="#553BE9"/>
</g>
<defs>
<clipPath id="clip0_304_97">
<rect width="34" height="34" fill="white"/>
</clipPath>
</defs>
</svg>
