<svg width="24" height="24" viewBox="0 0 24 24" fill="none" xmlns="http://www.w3.org/2000/svg">
<path d="M3.07146 3.07151C6.9767 -0.833733 13.3088 -0.833733 17.214 3.07151C20.8804 6.73799 21.104 12.543 17.8859 16.4709L23.2004 21.7854C23.5906 22.1759 23.5906 22.809 23.2004 23.1994C22.8099 23.5899 22.1768 23.5898 21.7863 23.1994L16.4709 17.884C12.5429 21.1027 6.73817 20.8807 3.07146 17.2141C-0.833749 13.3089 -0.833683 6.97676 3.07146 3.07151ZM15.8 4.48557C12.6758 1.36138 7.60972 1.36138 4.48552 4.48557C1.36155 7.60965 1.36173 12.6749 4.48552 15.799C7.60972 18.9232 12.6758 18.9232 15.8 15.799C18.9237 12.6749 18.9239 7.60965 15.8 4.48557Z" fill="#77808F"/>
</svg>
