<svg width="30" height="30" viewBox="0 0 30 30" fill="none" xmlns="http://www.w3.org/2000/svg">
<rect x="0.5" y="0.5" width="29" height="29" rx="14.5" stroke="white" stroke-opacity="0.5"/>
<path d="M22.6745 11.5722C22.5835 11.2706 22.4055 10.9956 22.1584 10.7745C21.9112 10.5533 21.6035 10.3939 21.2659 10.3119C20.014 10.005 15.0055 10 15.0055 10C15.0055 10 9.99788 9.99501 8.74517 10.2883C8.40775 10.3741 8.10068 10.5358 7.85345 10.758C7.60622 10.9802 7.42713 11.2554 7.33337 11.5572C7.0032 12.6749 7 14.9929 7 14.9929C7 14.9929 6.9968 17.3223 7.32457 18.4285C7.50844 19.0401 8.04806 19.5233 8.73397 19.6881C9.99868 19.995 14.9935 20 14.9935 20C14.9935 20 20.002 20.005 21.2539 19.7124C21.5917 19.6306 21.8997 19.4714 22.1474 19.2508C22.3952 19.0301 22.5741 18.7555 22.6665 18.4542C22.9975 17.3373 22.9999 15.02 22.9999 15.02C22.9999 15.02 23.0159 12.6898 22.6745 11.5722ZM13.4035 17.1403L13.4075 12.8583L17.5701 15.0029L13.4035 17.1403Z" fill="white"/>
</svg>
