<svg width="34" height="34" viewBox="0 0 34 34" fill="none" xmlns="http://www.w3.org/2000/svg">
<path d="M12.7028 34H5.66772C4.16455 34 2.72294 33.403 1.66004 32.3403C0.597133 31.2776 0 29.8362 0 28.3333V21.25C0 19.7471 0.597133 18.3058 1.66004 17.2431C2.72294 16.1804 4.16455 15.5833 5.66772 15.5833H18.2175C18.9843 15.5837 19.7381 15.782 20.4058 16.159C21.0736 16.536 21.6327 17.0789 22.029 17.7353L26.5873 12.7273C26.9643 12.3128 27.4194 11.9766 27.9264 11.738C28.4335 11.4994 28.9826 11.3631 29.5424 11.3367C30.1022 11.3104 30.6616 11.3947 31.1888 11.5847C31.716 11.7747 32.2006 12.0667 32.6149 12.444C33.4415 13.2032 33.9369 14.2566 33.9944 15.3774C34.0519 16.4981 33.6669 17.5967 32.9224 18.4365L23.2873 29.2556C21.9569 30.7474 20.3263 31.9412 18.5022 32.7588C16.6781 33.5764 14.7018 33.9994 12.7028 34ZM5.66772 18.4167C4.91614 18.4167 4.19533 18.7152 3.66388 19.2465C3.13243 19.7779 2.83386 20.4986 2.83386 21.25V28.3333C2.83386 29.0848 3.13243 29.8054 3.66388 30.3368C4.19533 30.8682 4.91614 31.1667 5.66772 31.1667H12.7028C14.301 31.166 15.881 30.8277 17.3393 30.1739C18.7975 29.5201 20.1012 28.5656 21.1647 27.3728L30.8069 16.5523C31.0572 16.2704 31.1868 15.9014 31.1677 15.5249C31.1487 15.1484 30.9824 14.7944 30.7049 14.5392C30.4226 14.2856 30.0526 14.1519 29.6734 14.1667C29.4854 14.1746 29.3008 14.2199 29.1305 14.3C28.9602 14.38 28.8076 14.4931 28.6815 14.6328L22.4102 21.5333C22.1348 22.2952 21.6578 22.968 21.0299 23.48C20.4021 23.9919 19.647 24.3239 18.8452 24.4403L11.5324 25.4858C11.1604 25.5392 10.7824 25.4426 10.4816 25.2173C10.1808 24.992 9.98179 24.6565 9.92843 24.2845C9.87507 23.9125 9.97168 23.5346 10.197 23.2339C10.4224 22.9331 10.758 22.7342 11.13 22.6808L18.4442 21.6367C18.8502 21.58 19.2195 21.3713 19.4775 21.0528C19.7356 20.7343 19.8631 20.3298 19.8343 19.9209C19.8055 19.512 19.6226 19.1293 19.3225 18.8501C19.0223 18.5709 18.6274 18.416 18.2175 18.4167H5.66772ZM15.5862 12.8548C14.944 12.8566 14.3205 12.6386 13.8193 12.2372C11.3935 10.2907 8.50158 7.36667 8.50158 4.53333C8.46679 3.36935 8.89447 2.23896 9.69107 1.38942C10.4877 0.539868 11.5884 0.0403073 12.7524 0C13.8113 0.00412367 14.8273 0.419075 15.5862 1.15742C16.3452 0.419075 17.3612 0.00412367 18.4201 0C19.5841 0.0403073 20.6848 0.539868 21.4814 1.38942C22.278 2.23896 22.7057 3.36935 22.6709 4.53333C22.6709 7.36667 19.7789 10.2907 17.3517 12.2386C16.8507 12.6392 16.2278 12.8566 15.5862 12.8548ZM12.7524 2.83333C12.3405 2.87465 11.9614 3.07589 11.6964 3.3938C11.4314 3.71171 11.3018 4.12088 11.3354 4.53333C11.3354 5.80833 12.9663 7.91917 15.5947 10.0286C18.2061 7.91917 19.837 5.80833 19.837 4.53333C19.8706 4.12088 19.741 3.71171 19.4761 3.3938C19.2111 3.07589 18.8319 2.87465 18.4201 2.83333C18.0083 2.87465 17.6291 3.07589 17.3641 3.3938C17.0992 3.71171 16.9695 4.12088 17.0032 4.53333C17.0032 4.90906 16.8539 5.26939 16.5882 5.53507C16.3224 5.80074 15.962 5.95 15.5862 5.95C15.2104 5.95 14.85 5.80074 14.5843 5.53507C14.3186 5.26939 14.1693 4.90906 14.1693 4.53333C14.2029 4.12088 14.0733 3.71171 13.8083 3.3938C13.5434 3.07589 13.1642 2.87465 12.7524 2.83333Z" fill="white"/>
</svg>
