<svg width="34" height="34" viewBox="0 0 34 34" fill="none" xmlns="http://www.w3.org/2000/svg">
<g clip-path="url(#clip0_305_101)">
<path d="M32.5835 5.6668H30.4585C30.0689 5.6668 29.7501 5.34805 29.7501 4.95846C29.7501 4.56888 30.0689 4.25013 30.4585 4.25013H32.5835C33.4193 4.25013 33.7947 3.88038 33.9633 3.57013C34.2268 3.08421 34.0795 2.54588 33.8755 2.23421C32.769 0.549798 30.7673 -0.290286 28.767 0.0964643C26.8006 0.478964 25.238 2.06138 24.8782 4.03196C24.8655 4.10563 24.8541 4.17788 24.8456 4.25013H9.26087C9.25237 4.17788 9.24245 4.10563 9.22829 4.03196C8.86987 2.05996 7.30587 0.477548 5.33954 0.0950477C3.3392 -0.290286 1.33887 0.546964 0.231036 2.2328C0.0256196 2.54446 -0.121714 3.0828 0.141786 3.56871C0.279203 3.82371 0.640453 4.24871 1.52162 4.24871H3.54179C3.93279 4.24871 4.25012 4.56746 4.25012 4.95705C4.25012 5.34663 3.93279 5.66538 3.54179 5.66538H1.52162C0.640453 5.66538 0.279203 6.0918 0.141786 6.34538C-0.121714 6.83272 0.0256196 7.37105 0.231036 7.6813C1.16037 9.09371 2.71729 9.91113 4.37195 9.91113C4.69212 9.91113 5.01654 9.88138 5.33954 9.81905C7.30729 9.43655 8.86987 7.85413 9.2297 5.88071C9.24245 5.80847 9.25237 5.73622 9.26229 5.66538H24.8456C24.8541 5.73763 24.864 5.8113 24.8782 5.88355C25.238 7.85555 26.8006 9.43797 28.767 9.81905C29.0914 9.88138 29.4158 9.91113 29.736 9.91113C31.3906 9.91113 32.949 9.09371 33.8769 7.6813C34.0823 7.36821 34.2282 6.82988 33.9647 6.34538C33.7975 6.03371 33.4207 5.66538 32.5849 5.66538L32.5835 5.6668ZM7.8782 4.95988C7.8782 5.18088 7.87679 5.40188 7.8357 5.62996C7.58354 7.01263 6.44737 8.16296 5.06895 8.43072C3.69195 8.69705 2.35745 8.18421 1.54004 7.08488H3.54179C4.71337 7.08488 5.66679 6.13146 5.66679 4.95988C5.66679 3.7883 4.71337 2.83488 3.54179 2.83488H1.53862C2.35745 1.73413 3.69195 1.21988 5.06895 1.48905C6.44595 1.75538 7.58354 2.90713 7.83429 4.28696C7.87537 4.51505 7.8782 4.73746 7.8782 4.96271V4.95988ZM29.0361 8.4293C27.6591 8.16296 26.523 7.01121 26.2708 5.62996C26.2283 5.40046 26.2269 5.17946 26.2269 4.95705C26.2269 4.73463 26.2269 4.51505 26.2708 4.28413C26.523 2.90288 27.6591 1.75255 29.0361 1.4848C29.2784 1.43805 29.5178 1.41396 29.7544 1.41396C30.8665 1.41396 31.8921 1.92255 32.565 2.83063H30.4585C29.2869 2.83063 28.3335 3.78405 28.3335 4.95563C28.3335 6.12721 29.2869 7.08063 30.4585 7.08063H32.5665C31.749 8.18138 30.4117 8.69705 29.0361 8.42647V8.4293ZM28.4553 13.1284C27.322 11.1479 25.2012 9.91538 22.9204 9.91538H11.0799C8.79904 9.91538 6.67829 11.1465 5.54495 13.1284L2.62945 18.2298C1.8347 19.6195 1.41679 21.2005 1.41679 22.8V24.7918C1.41679 26.7652 2.57704 28.4737 4.25012 29.2713V30.4585C4.25012 32.412 5.83962 34.0001 7.79179 34.0001C9.74395 34.0001 11.3335 32.412 11.3335 30.4585V29.7501H22.6668V30.4585C22.6668 32.412 24.2549 34.0001 26.2085 34.0001C28.162 34.0001 29.7501 32.412 29.7501 30.4585V29.2713C31.4232 28.4737 32.5835 26.7652 32.5835 24.7918V22.8C32.5835 21.1991 32.1641 19.6195 31.3708 18.2298L28.4553 13.1284ZM6.77462 13.831C7.65579 12.2897 9.3062 11.332 11.0799 11.332H22.919C24.694 11.332 26.343 12.2897 27.2228 13.831L30.1383 18.9325C30.304 19.2229 30.4514 19.5246 30.5789 19.8335H3.41995C3.54745 19.5246 3.69337 19.2243 3.85912 18.9325L6.77462 13.831ZM9.91679 30.4571C9.91679 31.6286 8.96337 32.5821 7.79179 32.5821C6.6202 32.5821 5.66679 31.6286 5.66679 30.4571V29.6977C5.8977 29.7303 6.13429 29.7487 6.37512 29.7487H9.91679V30.4571ZM28.3335 30.4571C28.3335 31.6286 27.38 32.5821 26.2085 32.5821C25.0369 32.5821 24.0835 31.6286 24.0835 30.4571V29.7487H27.6251C27.866 29.7487 28.1025 29.7317 28.3335 29.6977V30.4571ZM31.1668 24.7904C31.1668 26.744 29.5787 28.3321 27.6251 28.3321H6.37512C4.42295 28.3321 2.83345 26.744 2.83345 24.7904V22.7985C2.83345 22.2772 2.88729 21.7573 2.9907 21.2487H7.08345V23.3737C7.08345 23.7647 7.40079 24.0821 7.79179 24.0821C8.18279 24.0821 8.50012 23.7647 8.50012 23.3737V21.2487H25.5001V23.3737C25.5001 23.7647 25.8175 24.0821 26.2085 24.0821C26.5995 24.0821 26.9168 23.7647 26.9168 23.3737V21.2487H31.0095C31.113 21.7573 31.1668 22.2758 31.1668 22.7985V24.7904Z" fill="#00D0FF"/>
</g>
<defs>
<clipPath id="clip0_305_101">
<rect width="34" height="34" fill="white"/>
</clipPath>
</defs>
</svg>
