<svg width="34" height="34" viewBox="0 0 34 34" fill="none" xmlns="http://www.w3.org/2000/svg">
<g clip-path="url(#clip0_305_99)">
<path d="M0.0482597 18.9763C0.265011 17.4194 1.17735 16.0905 2.50334 15.3553L7.58209 11.9907L7.73368 9.68293C7.80309 8.62185 8.65451 7.76902 9.71418 7.70243L12.0233 7.55085L15.3596 2.51885C16.1232 1.14468 17.452 0.232349 19.0075 0.0155991C20.5588 -0.202568 22.0916 0.310266 23.2008 1.41952L26.9139 5.1326C28.0246 6.24185 28.536 7.77043 28.3193 9.32593C28.1011 10.8814 27.1888 12.2088 25.867 12.9413L20.4908 16.5453L19.0344 18.0016L28.5091 27.506C29.0687 27.1349 29.7402 26.9181 30.4613 26.9181C32.4134 26.9181 34.0029 28.5062 34.0029 30.4598C34.0029 32.4134 32.4134 34.0014 30.4613 34.0014C28.5091 34.0014 26.9196 32.4134 26.9196 30.4598C26.9196 29.7387 27.1363 29.0672 27.5089 28.5076L18.0357 19.0032L16.5836 20.4553L13.0108 25.7862C12.2486 27.1589 10.9198 28.0699 9.36426 28.288C9.1291 28.3206 8.89393 28.3376 8.66159 28.3376C7.35684 28.3376 6.11301 27.8262 5.17093 26.8841L1.45784 23.171C0.348591 22.0618 -0.164242 20.5332 0.0539284 18.9791L0.0482597 18.9763ZM30.4584 32.5834C31.63 32.5834 32.5834 31.6299 32.5834 30.4584C32.5834 29.2868 31.63 28.3334 30.4584 28.3334C29.2868 28.3334 28.3334 29.2868 28.3334 30.4584C28.3334 31.6299 29.2868 32.5834 30.4584 32.5834ZM26.9153 9.12902C27.0712 8.01835 26.7057 6.9261 25.9123 6.13418L22.1993 2.4211C21.4059 1.62777 20.3137 1.26227 19.203 1.4181C18.0923 1.57252 17.1432 2.22418 16.5708 3.25268L13.2728 8.23085L20.1267 15.0847L25.1289 11.7343C26.1093 11.1903 26.7609 10.2411 26.9168 9.13043L26.9153 9.12902ZM12.0078 8.96893L9.80626 9.11485C9.45351 9.13752 9.17018 9.42085 9.14751 9.77502L9.00301 11.9751L16.0283 19.0018L17.5214 17.5086L17.5313 17.4973L17.5413 17.4888L19.0344 15.997L12.0078 8.96893ZM2.45376 22.1652L6.16685 25.8783C6.96018 26.6716 8.05384 27.0329 9.16309 26.8813C10.2738 26.7269 11.2229 26.0752 11.7981 25.0439L15.1159 20.0898L8.26351 13.2359L3.23859 16.5623C2.25826 17.1091 1.60659 18.0583 1.45076 19.1689C1.29634 20.2796 1.66043 21.3733 2.45376 22.1652Z" fill="#1C49DF"/>
</g>
<defs>
<clipPath id="clip0_305_99">
<rect width="34" height="34" fill="white" transform="matrix(-1 0 0 1 34 0)"/>
</clipPath>
</defs>
</svg>
