<svg width="30" height="30" viewBox="0 0 30 30" fill="none" xmlns="http://www.w3.org/2000/svg">
<rect x="0.5" y="0.5" width="29" height="29" rx="14.5" stroke="white" stroke-opacity="0.5"/>
<path fill-rule="evenodd" clip-rule="evenodd" d="M11.0242 12.1765V10.9619C12.0899 11.0685 13.0567 11.73 13.0567 13.1254V17.1161H11.7431V13.1254C11.7431 12.5842 11.4757 12.2661 11.0238 12.1765H11.0242ZM7.50443 13.0458C7.79318 12.7046 8.22255 12.4977 8.80943 12.4977C9.9573 12.4977 10.9034 13.5315 10.9034 14.87C10.9034 16.2085 9.95693 17.2419 8.80943 17.2419C8.22293 17.2419 7.79318 17.0354 7.50443 16.6938V17.1161H6.19043V11.1261H7.50443V13.0458ZM7.41855 14.87C7.41855 15.5996 7.89293 16.0565 8.54693 16.0565C9.20093 16.0565 9.67493 15.5996 9.67493 14.87C9.67493 14.1408 9.20093 13.6838 8.54693 13.6838C7.89293 13.6838 7.41855 14.1408 7.41855 14.87ZM13.8352 14.87C13.8352 13.5311 14.8687 12.4977 16.1564 12.4977C17.4438 12.4977 18.4777 13.5311 18.4777 14.8696C18.4777 16.2081 17.4442 17.2415 16.1564 17.2415C14.8691 17.2415 13.8352 16.2085 13.8352 14.8696V14.87ZM15.0663 14.87C15.0663 15.5604 15.5403 16.0173 16.1564 16.0173C16.7726 16.0173 17.2466 15.5596 17.2466 14.8696C17.2466 14.1796 16.7726 13.7227 16.1564 13.7227C15.5403 13.7227 15.0663 14.1792 15.0663 14.8696V14.87ZM23.8091 12.6238H22.5303V13.0815C22.2416 12.7135 21.8204 12.4977 21.2516 12.4977C20.0073 12.4977 19.0964 13.54 19.0964 14.78C19.0964 16.02 20.0077 17.0619 21.2512 17.0619C21.8204 17.0619 22.2412 16.8465 22.5303 16.4777V16.8911C22.5303 17.5292 22.1534 17.8527 21.5403 17.8527H21.4968V19.0385C22.6623 19.0385 23.8094 18.4004 23.8094 16.8911L23.8091 12.6238ZM21.4706 15.9081C20.7974 15.9081 20.3238 15.4511 20.3238 14.7804C20.3238 14.1096 20.7978 13.6527 21.4706 13.6527C22.1437 13.6527 22.6177 14.1096 22.6177 14.7804C22.6177 15.4511 22.1437 15.9081 21.4706 15.9081Z" fill="white"/>
</svg>
