<svg width="70" height="70" viewBox="0 0 70 70" fill="none" xmlns="http://www.w3.org/2000/svg">
<g clip-path="url(#clip0_430_158)">
<path d="M21.875 37.9167C19.2791 37.9167 16.7415 37.1469 14.5831 35.7047C12.4247 34.2625 10.7425 32.2127 9.74908 29.8144C8.75568 27.4161 8.49576 24.7771 9.00219 22.2311C9.50862 19.6851 10.7587 17.3465 12.5942 15.5109C14.4298 13.6753 16.7684 12.4253 19.3144 11.9189C21.8604 11.4124 24.4994 11.6724 26.8977 12.6658C29.296 13.6592 31.3458 15.3414 32.788 17.4998C34.2302 19.6582 35 22.1958 35 24.7917C34.9961 28.2715 33.6121 31.6076 31.1515 34.0682C28.6909 36.5288 25.3548 37.9128 21.875 37.9167ZM21.875 20.4167C21.0097 20.4167 20.1638 20.6733 19.4444 21.154C18.7249 21.6347 18.1642 22.318 17.833 23.1174C17.5019 23.9169 17.4153 24.7965 17.5841 25.6452C17.7529 26.4939 18.1696 27.2734 18.7814 27.8853C19.3933 28.4971 20.1728 28.9138 21.0215 29.0826C21.8701 29.2514 22.7498 29.1648 23.5492 28.8337C24.3487 28.5025 25.0319 27.9418 25.5127 27.2223C25.9934 26.5028 26.25 25.657 26.25 24.7917C26.25 23.6314 25.7891 22.5186 24.9686 21.6981C24.1481 20.8776 23.0353 20.4167 21.875 20.4167ZM43.75 59.7917C43.7454 55.5386 42.0538 51.461 39.0464 48.4536C36.039 45.4462 31.9614 43.7546 27.7083 43.75H16.0417C11.7886 43.7546 7.711 45.4462 4.70361 48.4536C1.69622 51.461 0.00463216 55.5386 0 59.7917L0 70H8.75V59.7917C8.75 57.8578 9.51823 56.0031 10.8857 54.6357C12.2531 53.2682 14.1078 52.5 16.0417 52.5H27.7083C28.6659 52.5 29.6141 52.6886 30.4987 53.0551C31.3834 53.4215 32.1872 53.9586 32.8643 54.6357C33.5414 55.3128 34.0785 56.1166 34.445 57.0013C34.8114 57.8859 35 58.8341 35 59.7917V70H43.75V59.7917ZM51.0417 26.25C48.4458 26.25 45.9082 25.4802 43.7498 24.038C41.5914 22.5959 39.9091 20.546 38.9157 18.1477C37.9223 15.7494 37.6624 13.1104 38.1689 10.5644C38.6753 8.01845 39.9253 5.67979 41.7609 3.84423C43.5965 2.00867 45.9351 0.75863 48.4811 0.252199C51.0271 -0.254232 53.6661 0.00568688 56.0644 0.999087C58.4627 1.99249 60.5125 3.67475 61.9547 5.83315C63.3969 7.99154 64.1667 10.5291 64.1667 13.125C64.1628 16.6048 62.7788 19.9409 60.3182 22.4015C57.8576 24.8621 54.5214 26.2461 51.0417 26.25ZM51.0417 8.75001C50.1764 8.75001 49.3305 9.0066 48.611 9.48733C47.8916 9.96806 47.3308 10.6513 46.9997 11.4508C46.6686 12.2502 46.5819 13.1299 46.7507 13.9785C46.9195 14.8272 47.3362 15.6067 47.9481 16.2186C48.5599 16.8305 49.3395 17.2471 50.1881 17.4159C51.0368 17.5848 51.9165 17.4981 52.7159 17.167C53.5153 16.8358 54.1986 16.2751 54.6793 15.5556C55.1601 14.8362 55.4167 13.9903 55.4167 13.125C55.4167 11.9647 54.9557 10.8519 54.1353 10.0314C53.3148 9.21094 52.202 8.75001 51.0417 8.75001ZM70 48.125C69.9954 43.8719 68.3038 39.7943 65.2964 36.787C62.289 33.7796 58.2114 32.088 53.9583 32.0833H43.75V40.8333H53.9583C55.8922 40.8333 57.7469 41.6016 59.1143 42.969C60.4818 44.3365 61.25 46.1911 61.25 48.125V58.3334H70V48.125Z" fill="white"/>
</g>
<defs>
<clipPath id="clip0_430_158">
<rect width="70" height="70" fill="white"/>
</clipPath>
</defs>
</svg>
