<svg width="34" height="34" viewBox="0 0 34 34" fill="none" xmlns="http://www.w3.org/2000/svg">
<path d="M32.7505 1.23568C32.3076 0.793718 31.7722 0.455527 31.1828 0.245477C30.5935 0.0354263 29.9649 -0.0412527 29.3423 0.0209649C25.3843 0.403664 12.0734 2.05211 6.93211 7.18878C4.47451 9.65358 3.01718 12.9418 2.84157 16.4184C2.66596 19.895 3.78451 23.3133 5.98123 26.0133L0.3978 31.5979C0.139662 31.8652 -0.00317521 32.2233 5.35706e-05 32.5949C0.00328235 32.9665 0.152319 33.3221 0.415063 33.5849C0.677807 33.8476 1.03324 33.9967 1.4048 33.9999C1.77636 34.0032 2.13433 33.8603 2.4016 33.6021L7.98502 28.0175C10.6839 30.2176 14.1025 31.3388 17.5799 31.1641C21.0572 30.9895 24.3464 29.5316 26.8114 27.0721C32.0207 21.8603 33.6135 8.58776 33.9805 4.64454C34.0406 4.0207 33.9613 3.39132 33.7486 2.80182C33.5359 2.21231 33.195 1.6774 32.7505 1.23568ZM24.8147 25.0623C22.8824 26.9878 20.3156 28.1442 17.5934 28.3155C14.8713 28.4869 12.1798 27.6615 10.0214 25.9935L23.671 12.341C23.9292 12.0737 24.072 11.7157 24.0688 11.344C24.0656 10.9724 23.9165 10.6169 23.6538 10.3541C23.391 10.0913 23.0356 9.94224 22.6641 9.93901C22.2925 9.93578 21.9345 10.0786 21.6672 10.3368L8.01053 23.9893C6.34255 21.8306 5.51716 19.1385 5.6885 16.4157C5.85983 13.6928 7.01617 11.1255 8.94157 9.19299C12.4971 5.63814 22.3007 3.54322 29.6158 2.8416C29.823 2.82144 30.0321 2.84717 30.2282 2.91698C30.4243 2.98678 30.6027 3.09894 30.7505 3.24549C30.8984 3.39203 31.0122 3.56936 31.0838 3.76487C31.1553 3.96037 31.183 4.16925 31.1647 4.37665C30.4562 12.0122 28.4141 21.455 24.8076 25.0623H24.8147Z" fill="white"/>
</svg>
