<svg width="12" height="12" viewBox="0 0 12 12" fill="none" xmlns="http://www.w3.org/2000/svg">
<g clip-path="url(#clip0_413_685)">
<path d="M11.3285 3.69777L11 3.44077V0.499773H9.5V2.26627L7.0785 0.371773C6.443 -0.125227 5.556 -0.125227 4.9215 0.371773L0.672 3.69727C0.245 4.03127 0 4.53327 0 5.07527V11.9998H4.5V7.24977C4.5 7.11177 4.6125 6.99977 4.75 6.99977H7.25C7.3875 6.99977 7.5 7.11177 7.5 7.24977V11.9998H12V5.07527C12 4.53327 11.7555 4.03177 11.3285 3.69777ZM10.5 10.4998H9V7.24977C9 6.28477 8.215 5.49977 7.25 5.49977H4.75C3.785 5.49977 3 6.28477 3 7.24977V10.4998H1.5V5.07527C1.5 4.99927 1.5355 4.92577 1.596 4.87827L5.846 1.55277C5.937 1.48177 6.063 1.48177 6.1535 1.55277L10.404 4.87877C10.464 4.92577 10.4995 4.99927 10.4995 5.07527L10.5 10.4998Z" fill="white"/>
</g>
<defs>
<clipPath id="clip0_413_685">
<rect width="12" height="12" fill="white"/>
</clipPath>
</defs>
</svg>
