<svg width="34" height="34" viewBox="0 0 34 34" fill="none" xmlns="http://www.w3.org/2000/svg">
<path d="M21.3789 22.6667C30.6864 22.6157 34 17.6857 34 13.4584C33.9991 12.3251 33.61 11.2263 32.8976 10.345C32.1851 9.46374 31.1923 8.85309 30.0843 8.61478C30.277 8.06653 30.4442 7.56362 30.5561 7.18253C30.8034 6.35371 30.852 5.47828 30.6979 4.62718C30.5438 3.77608 30.1914 2.97324 29.6693 2.28371C29.1428 1.57238 28.4563 0.99498 27.6653 0.598244C26.8743 0.201507 26.001 -0.00342157 25.1161 4.32141e-05H8.88392C7.99899 -0.00342157 7.12568 0.201507 6.33467 0.598244C5.54366 0.99498 4.85716 1.57238 4.33075 2.28371C3.80858 2.97324 3.45618 3.77608 3.3021 4.62718C3.14803 5.47828 3.19661 6.35371 3.44392 7.18253C3.55583 7.56362 3.72725 8.06653 3.91567 8.61478C2.80774 8.85309 1.81488 9.46374 1.10242 10.345C0.389956 11.2263 0.00088723 12.3251 0 13.4584C0 17.6857 3.31358 22.6157 12.6211 22.6667C12.7038 23.0967 12.747 23.5335 12.75 23.9714V28.3333C12.7743 28.7117 12.7177 29.091 12.584 29.4458C12.4502 29.8005 12.2423 30.1227 11.9742 30.3909C11.7061 30.659 11.3839 30.8668 11.0291 31.0006C10.6743 31.1344 10.2951 31.191 9.91667 31.1667H8.5C8.12428 31.1667 7.76394 31.3159 7.49827 31.5816C7.23259 31.8473 7.08333 32.2076 7.08333 32.5833C7.08333 32.9591 7.23259 33.3194 7.49827 33.5851C7.76394 33.8507 8.12428 34 8.5 34H25.5C25.8757 34 26.2361 33.8507 26.5017 33.5851C26.7674 33.3194 26.9167 32.9591 26.9167 32.5833C26.9167 32.2076 26.7674 31.8473 26.5017 31.5816C26.2361 31.3159 25.8757 31.1667 25.5 31.1667H24.0947C23.7155 31.1922 23.3352 31.1366 22.9792 31.0034C22.6233 30.8702 22.2998 30.6625 22.0306 30.3943C21.7613 30.1261 21.5524 29.8035 21.4178 29.4481C21.2831 29.0927 21.226 28.7126 21.25 28.3333V23.97C21.2531 23.5325 21.2962 23.0963 21.3789 22.6667ZM29.0417 11.3334C29.6053 11.3334 30.1458 11.5572 30.5443 11.9558C30.9428 12.3543 31.1667 12.8948 31.1667 13.4584C31.1667 16.3399 28.8872 19.4084 22.6157 19.7909C22.9293 19.3627 23.2916 18.9724 23.6952 18.6278C25.9534 16.5934 27.7531 14.1021 28.9751 11.3192C28.9977 11.3206 29.0176 11.3334 29.0417 11.3334ZM2.83333 13.4584C2.83333 12.8948 3.05722 12.3543 3.45573 11.9558C3.85425 11.5572 4.39475 11.3334 4.95833 11.3334C4.98242 11.3334 5.00225 11.3206 5.02492 11.3192C6.24687 14.1021 8.04665 16.5934 10.3048 18.6278C10.7084 18.9724 11.0707 19.3627 11.3843 19.7909C5.11275 19.4084 2.83333 16.3399 2.83333 13.4584ZM14.8934 31.1667C15.3618 30.2967 15.5993 29.3212 15.5833 28.3333V23.9714C15.5883 22.546 15.2827 21.1367 14.688 19.8413C14.0933 18.5459 13.2236 17.3956 12.1394 16.4702C9.25867 13.717 7.19049 10.2246 6.16108 6.37503C6.04012 5.9687 6.01684 5.53954 6.09316 5.12251C6.16948 4.70547 6.34322 4.31237 6.60025 3.9752C6.86452 3.61895 7.20897 3.32993 7.60572 3.13156C8.00246 2.93319 8.44035 2.83103 8.88392 2.83337H25.1161C25.5601 2.83169 25.9983 2.93471 26.3951 3.13409C26.7919 3.33346 27.1361 3.62357 27.3997 3.98087C27.6568 4.31803 27.8305 4.71114 27.9068 5.12817C27.9832 5.54521 27.9599 5.97437 27.8389 6.3807C26.8086 10.2282 24.7404 13.7185 21.8606 16.4702C20.7764 17.3953 19.9068 18.5454 19.312 19.8405C18.7173 21.1357 18.4118 22.5448 18.4167 23.97V28.3333C18.4007 29.3212 18.6382 30.2967 19.1066 31.1667H14.8934Z" fill="white"/>
</svg>
