<svg width="30" height="30" viewBox="0 0 30 30" fill="none" xmlns="http://www.w3.org/2000/svg">
<rect x="0.5" y="0.5" width="29" height="29" rx="14.5" stroke="white" stroke-opacity="0.5"/>
<path fill-rule="evenodd" clip-rule="evenodd" d="M8 13C8 10.2386 10.2386 8 13 8H17C19.7614 8 22 10.2386 22 13V17C22 19.7614 19.7614 22 17 22H13C10.2386 22 8 19.7614 8 17V13ZM15 17.1C16.1598 17.1 17.1 16.1598 17.1 15C17.1 13.8402 16.1598 12.9 15 12.9C13.8402 12.9 12.9 13.8402 12.9 15C12.9 16.1598 13.8402 17.1 15 17.1ZM15 18.5C16.933 18.5 18.5 16.933 18.5 15C18.5 13.067 16.933 11.5 15 11.5C13.067 11.5 11.5 13.067 11.5 15C11.5 16.933 13.067 18.5 15 18.5ZM19.2 12.2C19.5866 12.2 19.9 11.8866 19.9 11.5C19.9 11.1134 19.5866 10.8 19.2 10.8C18.8134 10.8 18.5 11.1134 18.5 11.5C18.5 11.8866 18.8134 12.2 19.2 12.2Z" fill="white"/>
</svg>
