<svg width="144" height="30" viewBox="0 0 144 30" fill="none" xmlns="http://www.w3.org/2000/svg">
<mask id="mask0_127_151" style="mask-type:luminance" maskUnits="userSpaceOnUse" x="0" y="0" width="144" height="30">
<path d="M0 0.416504H144V29.5832H0V0.416504Z" fill="white"/>
</mask>
<g mask="url(#mask0_127_151)">
<path d="M137.639 12.8872L135.13 19.2539H135.055L132.45 12.8872H130.09L133.996 21.7839L131.769 26.7339H134.054L140.071 12.8872H137.639Z" fill="#5F6368"/>
<path d="M119.994 7.59717H117.806V22.2797H119.994V7.59717Z" fill="#5F6368"/>
<path d="M111.787 7.59717H106.543V22.2797H108.736V16.723H111.792C114.217 16.723 116.603 14.9655 116.603 12.163C116.604 9.36218 114.215 7.59717 111.787 7.59717ZM111.846 14.6722H108.737V9.64968H111.85C112.517 9.64968 113.156 9.91468 113.628 10.3872C114.1 10.8588 114.364 11.4997 114.364 12.1672C114.364 12.8347 114.1 13.4747 113.628 13.9472C113.156 14.4197 112.517 14.6847 111.85 14.6847L111.846 14.6722Z" fill="#5F6368"/>
<path d="M125.374 12.5649C123.789 12.5649 122.147 13.2641 121.468 14.8141L123.412 15.6266C123.828 14.8141 124.601 14.5549 125.412 14.5549C126.543 14.5549 127.694 15.2366 127.714 16.4458V16.5958C127.015 16.2216 126.234 16.0249 125.441 16.0233C123.346 16.0233 121.214 17.1741 121.214 19.3291C121.214 21.2924 122.927 22.5574 124.854 22.5574C126.327 22.5574 127.139 21.8974 127.638 21.1233H127.715V22.2549H129.829V16.6274C129.828 14.0208 127.884 12.5649 125.374 12.5649ZM125.111 20.6124C124.394 20.6124 123.398 20.2524 123.398 19.3649C123.398 18.2333 124.642 17.7974 125.719 17.7974C126.418 17.7791 127.109 17.9483 127.719 18.2883C127.638 18.9258 127.329 19.5124 126.85 19.9391C126.37 20.3666 125.753 20.6058 125.111 20.6124Z" fill="#5F6368"/>
<path d="M46.1858 22.598C41.8957 22.598 38.2891 19.1172 38.2891 14.8405C38.2891 10.5647 41.8966 7.08301 46.1858 7.08301C48.5597 7.08301 50.2486 8.01051 51.5204 9.22134L50.0205 10.7163C49.109 9.86467 47.8755 9.20301 46.1858 9.20301C43.0535 9.20301 40.6047 11.7197 40.6047 14.8413C40.6047 17.963 43.0544 20.4797 46.1858 20.4797C48.2176 20.4797 49.3754 19.6663 50.1154 18.928C50.7222 18.3222 51.1217 17.4522 51.2732 16.2605H46.1858V14.1413H53.3433C53.4199 14.5197 53.4573 14.9738 53.4573 15.4655C53.4573 17.0547 53.0203 19.0222 51.6161 20.423C50.2494 21.8413 48.5022 22.598 46.1858 22.598Z" fill="#5F6368"/>
<path d="M64.529 17.6019C64.529 20.4778 62.3107 22.5969 59.5897 22.5969C56.8687 22.5969 54.6504 20.4778 54.6504 17.6019C54.6504 14.7069 56.8687 12.6069 59.5897 12.6069C62.3107 12.6069 64.529 14.7069 64.529 17.6019ZM62.3665 17.6019C62.3665 15.8044 61.0805 14.5744 59.5888 14.5744C58.0972 14.5744 56.8113 15.8044 56.8113 17.6019C56.8113 19.3803 58.0972 20.6294 59.5888 20.6294C61.0805 20.6294 62.3665 19.3811 62.3665 17.6019Z" fill="#5F6368"/>
<path d="M75.5977 17.6019C75.5977 20.4778 73.3794 22.5969 70.6575 22.5969C67.9365 22.5969 65.7183 20.4778 65.7183 17.6019C65.7183 14.7069 67.9365 12.6069 70.6575 12.6069C73.3794 12.6069 75.5977 14.7069 75.5977 17.6019ZM73.436 17.6019C73.436 15.8044 72.15 14.5744 70.6584 14.5744C69.1676 14.5744 67.8816 15.8044 67.8816 17.6019C67.8816 19.3803 69.1676 20.6294 70.6584 20.6294C72.15 20.6294 73.436 19.3811 73.436 17.6019Z" fill="#5F6368"/>
<path d="M86.399 12.9106V21.8797C86.399 25.5689 84.2166 27.0831 81.6335 27.0831C79.2039 27.0831 77.7422 25.4556 77.1912 24.1314L79.1081 23.3372C79.4502 24.1506 80.2851 25.1156 81.6335 25.1156C83.2851 25.1156 84.3106 24.0939 84.3106 22.1831V21.4639H84.234C83.7404 22.0697 82.7914 22.5989 81.5953 22.5989C79.0898 22.5989 76.7925 20.4231 76.7925 17.6231C76.7925 14.8039 79.0898 12.6089 81.5953 12.6089C82.7905 12.6089 83.7404 13.1389 84.234 13.7256H84.3106V12.9122H86.399V12.9106ZM84.4629 17.6222C84.4629 15.8631 83.286 14.5764 81.7867 14.5764C80.2685 14.5764 78.9958 15.8631 78.9958 17.6222C78.9958 19.3631 80.2676 20.6306 81.7867 20.6306C83.286 20.6306 84.4629 19.3631 84.4629 17.6222Z" fill="#5F6368"/>
<path d="M90.2581 7.61377V22.2963H88.0557V7.61377H90.2581Z" fill="#5F6368"/>
<path d="M98.913 19.2486L100.622 20.3836C100.072 21.1969 98.7423 22.5969 96.445 22.5969C93.5983 22.5969 91.5415 20.4019 91.5415 17.6019C91.5415 14.6311 93.6166 12.6069 96.1986 12.6069C98.7989 12.6069 100.072 14.6694 100.489 15.7853L100.717 16.3536L94.0153 19.1161C94.528 20.1186 95.3255 20.6294 96.445 20.6294C97.5654 20.6294 98.3436 20.0811 98.913 19.2486ZM93.6549 17.4511L98.1355 15.5969C97.8883 14.9728 97.1484 14.5369 96.2752 14.5369C95.1548 14.5369 93.5983 15.5211 93.6549 17.4511Z" fill="#5F6368"/>
<path d="M16.2652 14.4009L5.09814 26.1168C5.09898 26.1193 5.09898 26.1218 5.09981 26.1243C5.44275 27.396 6.61722 28.3334 8.0131 28.3334C8.57079 28.3334 9.09435 28.1842 9.543 27.9225L9.57879 27.9018L22.1484 20.7325L16.2652 14.4009Z" fill="#EA4335"/>
<path d="M27.5619 12.4067L27.5511 12.4L22.124 9.29004L16.0103 14.6684L22.1473 20.7334L27.5436 17.6525C28.49 17.1475 29.1326 16.1617 29.1326 15.0242C29.1326 13.895 28.4991 12.9142 27.5619 12.4067Z" fill="#FBBC04"/>
<path d="M5.09652 3.88184C5.0291 4.12684 4.99414 4.3835 4.99414 4.64934V25.351C5.00496 25.6485 5.0291 25.8743 5.09735 26.1177L16.6482 14.7018L5.09652 3.88184Z" fill="#4285F4"/>
<path d="M16.3485 14.9998L22.1259 9.28984L9.57213 2.09234C9.11599 1.82234 8.58328 1.6665 8.01394 1.6665C6.61888 1.6665 5.44191 2.60484 5.09898 3.879C5.09898 3.879 5.09814 3.88067 5.09814 3.88234L16.3485 14.9998Z" fill="#34A853"/>
</g>
</svg>
