<svg width="171" height="44" viewBox="0 0 171 44" fill="none" xmlns="http://www.w3.org/2000/svg">
<g clip-path="url(#clip0_200_43)">
<path d="M72.1762 38.0467L70.3138 33.4139H61.2916L59.4579 38.0467H55.1802L63.5328 16.9419H68.0726L76.4547 38.0467H72.177H72.1762ZM65.8315 21.9178L62.8049 29.6682H68.8292L65.8315 21.9178Z" fill="#146AF0"/>
<path d="M85.925 38.0756L85.9538 36.7889C85.3519 37.3222 84.6147 37.7562 83.7422 38.0902C82.8697 38.4233 81.928 38.5517 80.9194 38.476C79.27 38.3614 78.0087 37.7371 77.1362 36.6032C76.2629 35.4693 75.8266 34.2344 75.8266 32.8995L75.7979 22.519H79.9885V31.2697C79.9885 32.3952 80.2071 33.2625 80.6433 33.8723C81.0803 34.4828 81.7732 34.7869 82.7243 34.7869C83.7523 34.7869 84.5478 34.4346 85.1108 33.7286C85.6731 33.0233 85.9546 32.0896 85.9546 30.9266L85.9258 22.519H90.0877V38.0764H85.9258L85.925 38.0756Z" fill="#146AF0"/>
<path d="M96.9981 38.1041C96.3581 38.1041 95.7998 38.004 95.3246 37.8038C94.8487 37.6036 94.4179 37.3224 94.0291 36.9602C93.68 36.6362 93.4039 36.203 93.1994 35.6589C92.9956 35.1156 92.8938 34.5105 92.8938 33.8434V26.0074H91.0889V22.4611H92.8938L92.9225 17.771H97.0261V22.4611H99.1802V26.0074H97.0261V33.0991C97.0261 33.4422 97.0409 33.6951 97.0697 33.8571C97.0984 34.0191 97.2104 34.1857 97.404 34.3576C97.6754 34.4914 97.9422 34.5723 98.2042 34.6006C98.4663 34.6297 98.7906 34.6442 99.1794 34.6442V38.1041H96.9966H96.9981Z" fill="#146AF0"/>
<path d="M114.053 24.2631C115.518 25.9029 116.25 27.8759 116.25 30.1827C116.25 32.4896 115.512 34.4725 114.039 36.1313C112.564 37.7902 110.614 38.6193 108.188 38.6193C105.763 38.6193 103.799 37.7902 102.353 36.1313C100.907 34.4725 100.185 32.4903 100.185 30.1827C100.185 27.8751 100.913 25.9029 102.368 24.2631C103.823 22.6241 105.773 21.8042 108.218 21.8042C110.663 21.8042 112.588 22.6241 114.053 24.2631ZM111.012 33.5143C111.691 32.5897 112.031 31.4794 112.031 30.1827C112.031 28.886 111.691 27.7903 111.012 26.894C110.332 25.9984 109.391 25.5499 108.189 25.5499C106.987 25.5499 106.074 25.9984 105.395 26.894C104.716 27.7903 104.377 28.886 104.377 30.1827C104.377 31.4794 104.716 32.5897 105.395 33.5143C106.074 34.4388 107.006 34.9011 108.189 34.9011C109.373 34.9011 110.332 34.4388 111.012 33.5143Z" fill="#146AF0"/>
<path d="M131.282 24.1921C132.602 25.7463 133.261 27.7429 133.261 30.1835C133.261 32.6241 132.601 34.6589 131.282 36.2322C129.963 37.8048 128.235 38.5911 126.102 38.5911C125.209 38.5911 124.36 38.4237 123.556 38.0906C122.75 37.7566 122.017 37.2944 121.358 36.7037V41.7942H117.254V22.5194H121.358V23.606C122.017 23.0154 122.75 22.5768 123.556 22.291C124.36 22.0052 125.21 21.8623 126.102 21.8623C128.235 21.8623 129.963 22.6394 131.282 24.1929V24.1921ZM128.052 33.6862C128.731 32.7807 129.071 31.6132 129.071 30.1827C129.071 28.7523 128.731 27.6046 128.052 26.7366C127.372 25.8693 126.422 25.4353 125.2 25.4353C123.977 25.4353 123.05 25.8693 122.362 26.7366C121.673 27.6046 121.328 28.7531 121.328 30.1827C121.328 31.6124 121.673 32.7807 122.362 33.6862C123.05 34.5917 123.997 35.0448 125.2 35.0448C126.403 35.0448 127.372 34.5917 128.052 33.6862Z" fill="#146AF0"/>
<path d="M134.265 37.9895V16.8281H138.31V38.0468L134.265 37.9895Z" fill="#146AF0"/>
<path d="M150.954 38.0761C150.857 37.866 150.76 37.6184 150.663 37.3326C150.566 37.0468 150.498 36.7221 150.459 36.3599C149.877 36.8367 149.106 37.2799 148.146 37.6895C147.186 38.099 146.249 38.3519 145.337 38.4475C143.824 38.6194 142.495 38.3565 141.35 37.6612C140.206 36.9651 139.545 35.893 139.371 34.4443C139.177 33.0528 139.482 31.8516 140.288 30.8407C141.093 29.8305 142.097 29.1444 143.3 28.7814C144.212 28.4765 145.114 28.2908 146.007 28.2236C146.899 28.1571 147.646 28.0662 148.248 27.9523C148.732 27.8568 149.218 27.7094 149.703 27.5092C150.188 27.309 150.43 26.9804 150.43 26.5227C150.43 26.1414 150.144 25.8464 149.571 25.6363C148.999 25.4269 148.208 25.3215 147.2 25.3215C146.249 25.3215 145.424 25.5645 144.726 26.0505C144.028 26.5364 143.688 27.1424 143.707 27.8668H139.924C139.788 26.1704 140.438 24.7499 141.874 23.6061C143.31 22.4622 145.056 21.8906 147.113 21.8906C149.169 21.8906 150.877 22.3338 152.351 23.2202C153.826 24.1066 154.563 25.3605 154.563 26.9812V35.3314C154.563 35.9228 154.635 36.4753 154.782 36.9903C154.927 37.5053 155.038 37.8667 155.116 38.0769H150.954V38.0761ZM150.43 30.6405C150.158 30.7742 149.877 30.8888 149.586 30.9836C149.295 31.0791 149.023 31.1555 148.771 31.2128C148.208 31.3465 147.549 31.4657 146.792 31.5704C146.035 31.6759 145.424 31.8134 144.958 31.9853C144.434 32.1764 144.022 32.4285 143.721 32.7426C143.42 33.0574 143.367 33.4433 143.561 33.901C143.794 34.4924 144.269 34.7919 144.987 34.8019C145.705 34.8118 146.384 34.7117 147.025 34.5016C147.762 34.2349 148.523 33.82 149.309 33.2576C150.095 32.6952 150.478 32.1183 150.459 31.5276L150.429 30.6413L150.43 30.6405Z" fill="#146AF0"/>
<path d="M166.19 38.0757V29.3533C166.19 28.2286 165.966 27.3567 165.52 26.7363C165.074 26.1173 164.375 25.8071 163.424 25.8071C162.415 25.8071 161.634 26.1357 161.081 26.7936C160.528 27.4515 160.252 28.3715 160.252 29.5535V38.0757H156.119V22.5757H160.252V23.5484C160.853 22.9951 161.551 22.5756 162.346 22.2899C163.142 22.0041 164.083 21.9086 165.169 22.0041C166.838 22.176 168.113 22.8576 168.996 24.0489C169.879 25.2401 170.32 26.3985 170.32 27.5233V38.0757H166.187H166.19Z" fill="#146AF0"/>
<path d="M23.0118 8.49237C25.6488 5.73009 28.2352 2.89981 30.7687 0H21.9706C19.5055 2.79666 17.0847 5.35491 14.7082 7.67324C12.3302 9.99309 9.85732 12.397 7.28956 14.8865V0.0511957H0V37.9077H7.34089V23.942L10.3604 20.9749L24.5733 38.0613H33.7362L15.6188 15.9608C17.9097 13.7441 20.3733 11.2546 23.0118 8.4916V8.49237Z" fill="#146AF0"/>
<path d="M45.7664 25.0162C44.2694 24.0542 42.5431 23.3221 40.6658 22.8851C40.6658 22.8851 39.2607 22.5534 37.6292 22.1271C36.5895 21.855 35.458 21.5448 34.5396 21.256C34.4463 21.2254 34.3569 21.1956 34.2713 21.1666C33.5621 20.9182 32.6531 20.5217 32.6531 20.5217H32.6539C30.7759 19.675 29.5309 18.201 29.5309 16.523C29.5309 13.8975 32.5761 11.7695 36.3321 11.7695C40.0881 11.7695 43.1333 13.8975 43.1333 16.523C43.1333 16.9448 43.054 17.3529 42.9062 17.7426H50.1328C50.1833 17.3422 50.2098 16.9349 50.2098 16.523C50.2098 10.0556 43.8262 4.81299 35.9518 4.81299C28.0775 4.81299 21.6938 10.0556 21.6938 16.523C21.6938 20.1121 23.6605 23.3229 26.7563 25.4716C28.4857 26.672 30.5675 27.5393 32.856 27.9557C32.856 27.9557 36.5599 28.6045 37.941 29.0033C38.3415 29.1088 38.6961 29.2119 39.0087 29.3113C39.4838 29.4618 39.8602 29.6016 40.1588 29.7254C40.2638 29.772 40.3742 29.8125 40.4761 29.8637C42.4785 30.8594 43.8129 32.6359 43.8129 34.6639C43.8129 36.6918 42.4933 38.4478 40.5095 39.4465L46.2291 44.0014C49.4508 41.7564 51.4968 38.4065 51.4968 34.6639C51.4968 30.9212 49.2548 27.2573 45.7679 25.0169L45.7664 25.0162Z" fill="#146AF0"/>
</g>
<defs>
<clipPath id="clip0_200_43">
<rect width="170.323" height="44" fill="white"/>
</clipPath>
</defs>
</svg>
