<svg width="144" height="27" viewBox="0 0 144 27" fill="none" xmlns="http://www.w3.org/2000/svg">
<path d="M143.317 9.86V14.78H140.317V26.12H135.247V0.5H140.317V9.86H143.317ZM116.977 5.66V1.1H131.707V8.78C131.707 19.04 125.557 24.89 116.977 24.92V20.18C121.147 20.15 124.357 18.35 125.827 14.48H116.977V9.89H126.667V9.14V5.66H116.977Z" fill="#FF6600"/>
<path d="M112.899 0.5V13.52H108.159V0.5H112.899ZM94.2389 9.86C92.5289 12.17 90.0989 13.46 87.3389 13.58V9.17C89.8589 8.63 92.0189 6.23 92.0189 0.710001L96.8189 0.89C96.8189 2.75 96.5789 4.4 96.1589 5.9L101.559 9.8V7.1H98.4389V2.72H101.559V0.62H106.239V13.25H101.559V10.1L98.7989 13.4L94.2389 9.86ZM94.2689 22.55H113.169V26.12H89.3189V18.83H107.949V17.99H89.2589V14.42H112.899V21.71H94.2689V22.55Z" fill="#FF6600"/>
<path d="M83.3209 0.5V14.36H78.2509V0.5H83.3209ZM64.5109 0.65V9.05H71.1409C73.4509 9.05 75.7009 8.72 77.0509 8.15V12.38C75.7309 12.95 73.4809 13.28 71.0809 13.28H59.3809V0.65H64.5109ZM71.8609 14.66C78.3709 14.66 83.5609 16.19 83.5609 20.54C83.5609 24.89 78.3709 26.42 71.8609 26.42C65.3509 26.42 60.1609 24.89 60.1609 20.54C60.1609 16.19 65.3509 14.66 71.8609 14.66ZM71.8609 18.74C68.4109 18.74 65.6209 19.28 65.6209 20.54C65.6209 21.83 68.4109 22.34 71.8609 22.34C75.3109 22.34 78.1009 21.83 78.1009 20.54C78.1009 19.28 75.3109 18.74 71.8609 18.74Z" fill="#FF6600"/>
<path d="M45.2236 20.4801H55.6036V25.2201H29.6836V20.4801H40.0636V16.3401H31.0936V1.1001H54.1936V16.3401H45.2236V20.4801ZM36.1336 5.8401V11.6301H49.1536V5.8401H36.1336Z" fill="#FF6600"/>
<path d="M19.9662 8.9V4.76H2.32617V0.5H25.1262V8.9H19.9662ZM0.826172 9.89H26.7462V14.12H16.3362V16.4H11.2362V14.12H0.826172V9.89ZM16.9362 17.72C16.7562 18.35 16.5462 18.98 16.2762 19.52L26.3562 22.16L24.8262 26.39L13.4262 22.91C10.5162 25.13 6.25617 26.12 1.93617 26.12V21.8C6.76617 21.8 10.9662 20.09 11.9262 16.91L16.9362 17.72Z" fill="#FF6600"/>
</svg>
