<svg width="156" height="26" viewBox="0 0 156 26" fill="none" xmlns="http://www.w3.org/2000/svg">
<g clip-path="url(#clip0_356_128)">
<path d="M0 0H10.069C14.3239 0 17.7629 1.34428 20.1381 3.67938C22.5133 6.01448 23.8258 9.12699 23.8258 12.8064C23.8258 16.2733 22.6556 19.4563 20.2804 21.8271C17.9051 24.197 14.5369 25.6118 10.1049 25.6118H0V0ZM14.6782 17.6166C15.8832 16.4491 16.522 14.7156 16.522 12.8054C16.522 10.8952 15.8842 9.16176 14.6782 7.9942C13.4731 6.82665 11.9129 6.15451 9.99839 6.15451H7.30376V19.4553H9.99839C11.9129 19.4553 13.4731 18.7832 14.6782 17.6156V17.6166Z" fill="#146AF0"/>
<path d="M33.6469 0H41.1984L51.4098 25.6108H43.4682L41.6601 20.3757H32.8677L30.989 25.6108H23.4375L33.6469 0ZM39.7805 14.9986L38.9297 12.5582C38.4331 11.1077 37.8301 9.33945 37.3694 7.78271H37.2988C36.8022 9.37422 36.1992 11.1434 35.6679 12.6287L34.8171 14.9986H39.7805Z" fill="#146AF0"/>
<path d="M53.502 0H63.8188C66.6199 0 68.8886 0.56591 70.7673 1.94592C72.647 3.32593 73.8162 5.44761 73.8162 8.20763C73.8162 11.4621 72.1853 13.9382 69.4558 15.2825L75.9088 25.6118H67.7901L62.4366 16.4143H60.7351V25.6118H53.502V0ZM63.0745 11.2139C64.3511 11.2139 65.0596 11.0372 65.6626 10.6123C66.2656 10.1873 66.5841 9.40995 66.5841 8.52535C66.5841 7.64075 66.2647 6.82762 65.6626 6.4027C65.0596 5.97779 64.3511 5.80106 63.0745 5.80106H60.7341V11.2129H63.0745V11.2139Z" fill="#146AF0"/>
<path d="M84.3106 0V13.9025C84.3106 15.7422 84.7007 17.0864 85.5166 18.0058C86.3316 18.8904 87.5017 19.4563 89.0262 19.4563C90.5506 19.4563 91.7208 18.8904 92.5358 18.0058C93.3508 17.1212 93.7408 15.7769 93.7408 13.9025V0H100.761V14.5389C100.761 17.5809 99.945 20.4819 97.9241 22.6045C95.9031 24.7272 92.6055 26.001 88.8829 26.001C85.1604 26.001 81.8628 24.7272 79.8418 22.6045C77.8208 20.4819 77.0059 17.5104 77.0059 14.5389V0H84.3096H84.3106Z" fill="#146AF0"/>
<path d="M104.591 0H114.66C118.915 0 122.354 1.34428 124.729 3.67938C127.104 6.01448 128.417 9.12699 128.417 12.8064C128.417 16.2733 127.246 19.4563 124.871 21.8271C122.496 24.197 119.128 25.6118 114.696 25.6118H104.591V0ZM119.269 17.6166C120.475 16.4491 121.113 14.7156 121.113 12.8054C121.113 10.8952 120.475 9.16176 119.269 7.9942C118.064 6.82665 116.504 6.15451 114.589 6.15451H111.895V19.4553H114.589C116.504 19.4553 118.064 18.7832 119.269 17.6156V17.6166Z" fill="#146AF0"/>
<path d="M138.237 0H145.788L155.999 25.6108H148.057L146.249 20.3757H137.457L135.578 25.6108H128.026L138.237 0ZM144.37 14.9986L143.52 12.5582C143.023 11.1077 142.42 9.33945 141.959 7.78271H141.889C141.392 9.37422 140.789 11.1434 140.258 12.6287L139.407 14.9986H144.37Z" fill="#146AF0"/>
</g>
<defs>
<clipPath id="clip0_356_128">
<rect width="156" height="26" fill="white"/>
</clipPath>
</defs>
</svg>
