<svg width="206" height="48" viewBox="0 0 206 48" fill="none" xmlns="http://www.w3.org/2000/svg">
<g clip-path="url(#clip0_1101_213)">
<path d="M56.8191 26.2764H52.28L45.6857 34.3597H45.446V26.2764H41.6812V44.5066H45.446V39.292L47.34 36.9646L52.3675 44.5066H56.8928L50.0358 34.4337L56.8191 26.2764Z" fill="#333333"/>
<path d="M69.791 35.8311C68.8325 34.9751 67.4961 34.3505 65.7865 33.9526L64.1552 33.5639C63.2428 33.3557 62.5285 33.0734 62.0124 32.7264C61.4917 32.3794 61.2428 31.8936 61.2613 31.2736C61.2613 30.871 61.3765 30.5101 61.6115 30.1955C61.8465 29.8809 62.1829 29.6356 62.6253 29.4598C63.0677 29.284 63.5976 29.1961 64.2197 29.1961C64.8418 29.1961 65.3764 29.284 65.8326 29.4598C66.2888 29.6356 66.6436 29.8947 66.9063 30.2418C67.1644 30.5841 67.3164 31.0006 67.3579 31.4864H70.9799C70.9707 30.4222 70.685 29.4737 70.1274 28.6408C69.5698 27.808 68.7772 27.1648 67.7634 26.7068C66.7496 26.2487 65.5791 26.022 64.2566 26.022C62.934 26.022 61.7543 26.2487 60.7129 26.7021C59.6714 27.1556 58.8604 27.8033 58.2752 28.6408C57.6899 29.4783 57.3996 30.4407 57.3996 31.5234C57.3904 32.8236 57.8143 33.8785 58.6669 34.6883C59.5194 35.498 60.7405 36.0995 62.3304 36.4928L64.3257 36.9693C65.0262 37.1452 65.6022 37.3302 66.0492 37.5246C66.4962 37.7189 66.8372 37.9549 67.0722 38.2418C67.3072 38.5286 67.4224 38.871 67.4224 39.2736C67.4224 39.727 67.2888 40.1249 67.0215 40.4719C66.7542 40.8143 66.3718 41.0827 65.8787 41.277C65.3856 41.4714 64.8142 41.5685 64.1598 41.5685C63.4732 41.5685 62.8695 41.4667 62.3488 41.2585C61.8281 41.0549 61.4087 40.7403 61.1 40.3285C60.7912 39.9121 60.6161 39.4077 60.5746 38.8109H56.9111C56.9526 40.0972 57.2706 41.1799 57.8696 42.0636C58.4687 42.9474 59.3028 43.6183 60.3765 44.0763C61.4502 44.5344 62.7221 44.7565 64.1967 44.7519C65.6575 44.7519 66.9201 44.5298 67.9754 44.0902C69.0353 43.6507 69.8417 43.0168 70.3947 42.1978C70.9523 41.3742 71.2288 40.4118 71.2288 39.3013C71.2288 37.8392 70.7495 36.6825 69.791 35.8265V35.8311Z" fill="#333333"/>
<path d="M82.8279 26.2764L76.5562 44.5066H80.5837L81.9523 40.3007H88.5375L89.9015 44.5066H93.9521L87.6711 26.2764H82.8325H82.8279ZM82.9155 37.3394L85.1735 30.3897H85.3255L87.5789 37.3394H82.9155Z" fill="#333333"/>
<path d="M106.214 37.807C106.205 38.5056 106.053 39.1256 105.749 39.6716C105.449 40.2176 105.012 40.6479 104.44 40.9625C103.869 41.2772 103.214 41.4345 102.477 41.4345C101.74 41.4345 101.081 41.2772 100.514 40.9625C99.9517 40.6479 99.514 40.2176 99.2052 39.6716C98.8965 39.1256 98.7398 38.5056 98.7398 37.807V26.272H94.9795V38.1216C94.9795 39.4403 95.2928 40.6016 95.915 41.6011C96.5371 42.6051 97.4126 43.3824 98.5416 43.9284C99.6706 44.479 100.984 44.752 102.477 44.752C103.97 44.752 105.265 44.479 106.408 43.9284C107.551 43.3778 108.431 42.6005 109.053 41.6011C109.675 40.597 109.988 39.4357 109.988 38.1216V26.272H106.214V37.807Z" fill="#333333"/>
<path d="M111.297 29.3949H116.873V44.5066H120.601V29.3949H126.168V26.2764H111.297V29.3949Z" fill="#333333"/>
<path d="M139.19 27.1322C137.905 26.3919 136.453 26.0264 134.831 26.0264C133.209 26.0264 131.757 26.3965 130.472 27.1322C129.191 27.8725 128.182 28.946 127.449 30.3618C126.716 31.7777 126.352 33.4526 126.352 35.3913C126.352 37.33 126.716 38.9957 127.449 40.4069C128.182 41.8228 129.186 42.9009 130.472 43.6412C131.753 44.3861 133.209 44.7563 134.831 44.7563C136.453 44.7563 137.905 44.3861 139.19 43.6412C140.472 42.8962 141.481 41.8228 142.213 40.4116C142.946 39.0003 143.31 37.3254 143.31 35.3867C143.31 33.448 142.946 31.773 142.213 30.3572C141.481 28.9413 140.476 27.8679 139.19 27.1276V27.1322ZM138.928 38.6441C138.545 39.5371 138.006 40.2219 137.306 40.6892C136.605 41.1611 135.78 41.3971 134.836 41.4064C133.9 41.3971 133.085 41.1565 132.384 40.6892C131.688 40.2172 131.145 39.5371 130.753 38.6441C130.366 37.7511 130.168 36.6637 130.168 35.3913C130.168 34.1189 130.361 33.0177 130.753 32.1201C131.145 31.2224 131.684 30.5376 132.384 30.075C133.08 29.6076 133.9 29.3763 134.836 29.3763C135.771 29.3763 136.605 29.6076 137.306 30.075C138.006 30.5423 138.55 31.2224 138.928 32.1201C139.306 33.0177 139.499 34.1097 139.499 35.3913C139.499 36.673 139.31 37.7511 138.928 38.6441Z" fill="#333333"/>
<path d="M155.619 27.0491C154.637 26.5308 153.467 26.2764 152.117 26.2764H145.02V44.5066H148.78V38.5656H152.029C153.402 38.5656 154.582 38.3064 155.577 37.7929C156.573 37.2746 157.328 36.5575 157.849 35.6413C158.365 34.7206 158.628 33.6564 158.628 32.4348C158.628 31.2133 158.375 30.1538 157.863 29.2237C157.352 28.2937 156.605 27.5673 155.623 27.0537L155.619 27.0491ZM154.384 34.0543C154.14 34.517 153.771 34.8732 153.273 35.1324C152.776 35.3868 152.163 35.5164 151.435 35.5164H148.776V29.3857H151.421C152.149 29.3857 152.762 29.5106 153.264 29.7558C153.766 30.0057 154.14 30.3573 154.379 30.8154C154.623 31.2735 154.743 31.8102 154.743 32.4348C154.743 33.0595 154.623 33.5962 154.379 34.0589L154.384 34.0543Z" fill="#333333"/>
<path d="M163.752 26.2764H159.987V44.5066H171.563V41.3834H163.752V26.2764Z" fill="#333333"/>
<path d="M178.71 26.2764L172.438 44.5066H176.461L177.83 40.3007H184.415L185.779 44.5066H189.83L183.549 26.2764H178.71ZM178.798 37.3394L181.056 30.3897H181.208L183.461 37.3394H178.798Z" fill="#333333"/>
<path d="M202.249 26.2764V37.8437H202.088L194.176 26.2764H190.862V44.5066H194.627V32.9207H194.765L202.738 44.5066H206V26.2764H202.249Z" fill="#333333"/>
<path d="M20.7645 30.3019C20.7645 30.3019 11.9214 33.0873 11.502 22.6027L11.4007 10.5402C11.4007 10.5402 11.8799 7.107 8.45142 4.83054L0 0L0.147462 19.2944C0.147462 19.2944 -0.179719 26.952 7.1427 31.1533C14.4651 35.3545 20.7645 30.3065 20.7645 30.3065V30.3019Z" fill="url(#paint0_linear_1101_213)"/>
<path d="M13.502 14.8896C13.502 14.8896 6.93992 21.3257 15.6264 26.7947C15.6724 26.7624 15.7185 26.7346 15.7692 26.7022L26.1745 20.6733C26.1745 20.6733 29.3864 19.4009 29.6675 15.2829L29.6952 5.52002L13.5066 14.885" fill="url(#paint1_linear_1101_213)"/>
<path d="M29.7274 38.2372C29.4232 34.1193 26.2067 32.8654 26.2067 32.8654L15.7692 26.8873C15.7185 26.8549 15.6724 26.8272 15.6263 26.7948C6.93986 21.3257 13.5019 14.8896 13.5019 14.8896C13.5019 14.8896 12.3821 15.4588 11.0135 16.6016C9.0458 18.3043 6.35001 21.5756 6.22559 26.7902C6.35922 32.0695 9.11953 35.3547 11.1011 37.0435C12.2301 38.0013 13.1056 38.4501 13.1056 38.4501L29.8011 48.0001L29.7274 38.2372Z" fill="url(#paint2_linear_1101_213)"/>
<path d="M49.6672 12.0995L48.7502 13.52C47.3032 13.0388 46.2986 12.0717 45.7272 10.841C45.1558 12.1689 44.1236 13.2331 42.6213 13.7467L41.6904 12.3124C43.8517 11.5905 44.7825 9.78603 44.7825 8.04167V6.7924H46.6627V8.04167C46.6488 9.74439 47.552 11.4193 49.6718 12.0995H49.6672ZM52.8284 18.7531H43.8701V14.5981H45.6903V17.3095H52.8238V18.7577L52.8284 18.7531ZM52.492 15.5049H50.6856V6.08447H52.492V15.5049Z" fill="#333333"/>
<path d="M61.8744 14.9916L60.8698 16.3519C59.5011 15.7365 58.5472 14.515 58.0035 13.076C57.4505 14.6307 56.4367 15.9401 54.9805 16.5786L53.9897 15.172C56.0819 14.2513 57.0818 12.0534 57.0957 10.1101V9.61505H54.4413V8.16681H57.0818V6.35304H58.8883V8.16681H61.5011V9.61505H58.8744V10.1101C58.8744 11.9424 59.8191 14.0245 61.8698 14.9916H61.8744ZM64.372 11.0772H66.266V12.5948H64.372V18.9754H62.5656V6.0708H64.372V11.0772Z" fill="#333333"/>
<path d="M74.0353 8.38428H71.4778C71.4916 9.88804 72.3902 11.3409 74.4455 11.9424L73.5837 13.3629C72.1644 12.9326 71.1829 12.0673 70.6161 10.9522C70.0446 12.257 68.9986 13.2935 67.4502 13.8024L66.5332 12.3681C68.6668 11.6925 69.6253 10.0222 69.6576 8.38428H67.0309V6.93604H74.0399V8.38428H74.0353ZM77.0583 16.4676C77.0583 18.0407 75.3901 18.98 72.722 18.98C70.0539 18.98 68.3166 18.0454 68.3166 16.4676C68.3166 14.8898 69.9986 13.969 72.722 13.9875C75.3901 13.9736 77.0583 14.8944 77.0583 16.4676ZM70.123 16.4676C70.1092 17.2032 71.0262 17.5734 72.722 17.5734C74.4178 17.5734 75.2795 17.2032 75.2795 16.4676C75.2795 15.7319 74.3902 15.3895 72.722 15.3895C71.0538 15.3895 70.1092 15.7458 70.123 16.4676ZM76.9339 9.06444H78.6712V10.5404H76.9339V13.733H75.1275V6.0708H76.9339V9.06444Z" fill="#333333"/>
<path d="M80.224 16.7637L79.2793 15.3155C82.5972 13.7423 84.0626 11.6972 84.3529 8.83309H79.9751V7.41262H86.1916C86.1916 11.327 84.823 14.5751 80.2286 16.7591L80.224 16.7637ZM90.044 18.98H88.2192V6.0708H90.044V18.98Z" fill="#333333"/>
<path d="M96.7997 11.1325H94.0164V12.5344C95.3989 12.5252 96.4265 12.4512 97.6338 12.2383L97.8043 13.6588C96.3343 13.941 95.0625 13.9688 93.1547 13.9688H92.2653V9.82768H95.0625V8.43959H92.2515V7.033H96.7997V11.1325ZM103.113 18.7531H94.0717V14.8109H95.8781V17.3095H103.113V18.7577V18.7531ZM100.159 15.4726H98.4633V10.7762H97.2744V9.3002H98.4633V6.29269H100.159V15.4679V15.4726ZM102.786 15.7872H101.076V6.08447H102.786V15.7872Z" fill="#333333"/>
<path d="M116.012 17.4764H104.242V16.0004H116.012V17.4764ZM114.726 14.1682H105.629V7.01953H114.629V8.48165H107.468V9.84197H114.334V11.2624H107.468V12.7384H114.73V14.1728L114.726 14.1682Z" fill="#333333"/>
<path d="M133.546 12.1275H129.306V14.4965C131.265 14.4872 132.928 14.3762 134.818 14.0708L134.974 15.5329C132.855 15.9031 130.947 15.9864 128.601 15.9864H127.444V10.6931H131.712V8.60637H127.431V7.14425H133.546V12.1229V12.1275ZM137.532 19.0078H135.739V6.0708H137.532V19.0078Z" fill="#333333"/>
<path d="M151.024 17.3883H139.255V15.8984H151.024V17.3883ZM150.6 12.183L149.808 13.6868C147.568 13.2379 145.9 11.9794 145.075 10.3091C144.223 11.9609 142.554 13.2333 140.329 13.6868L139.55 12.183C142.402 11.674 144.084 9.6428 144.098 7.77351V6.83887H146.02V7.77351C146.02 9.66131 147.688 11.6879 150.596 12.183H150.6Z" fill="#333333"/>
<path d="M122.62 11.8404C122.62 11.2272 122.124 10.73 121.514 10.73C120.903 10.73 120.408 11.2272 120.408 11.8404C120.408 12.4537 120.903 12.9509 121.514 12.9509C122.124 12.9509 122.62 12.4537 122.62 11.8404Z" fill="#333333"/>
</g>
<defs>
<linearGradient id="paint0_linear_1101_213" x1="2.54585" y1="3.24431" x2="10.9734" y2="27.1782" gradientUnits="userSpaceOnUse">
<stop stop-color="#AF866E"/>
<stop offset="1" stop-color="#E9DDCF"/>
</linearGradient>
<linearGradient id="paint1_linear_1101_213" x1="8.93248" y1="24.5006" x2="24.395" y2="15.096" gradientUnits="userSpaceOnUse">
<stop stop-color="#AF866E"/>
<stop offset="1" stop-color="#E9DDCF"/>
</linearGradient>
<linearGradient id="paint2_linear_1101_213" x1="28.2205" y1="41.3003" x2="10.0353" y2="23.949" gradientUnits="userSpaceOnUse">
<stop stop-color="#AF866E"/>
<stop offset="1" stop-color="#E9DDCF"/>
</linearGradient>
<clipPath id="clip0_1101_213">
<rect width="206" height="48" fill="white"/>
</clipPath>
</defs>
</svg>
