<svg width="124" height="44" viewBox="0 0 124 44" fill="none" xmlns="http://www.w3.org/2000/svg">
<g clip-path="url(#clip0_293_90)">
<path d="M65.7739 33.3902C65.6432 31.299 64.807 30.5148 62.6069 30.5148H59.5193V37.8621H55.2266V17.1738H63.7046C68.1002 17.1738 70.403 19.5545 70.403 23.5036C70.403 26.2483 69.1465 28.0548 66.7128 28.7083C68.9643 29.0211 69.8799 30.3841 70.0387 33.1008L70.2209 35.9763C70.2722 36.7605 70.403 37.386 70.6132 37.8575H66.2691C66.0869 37.414 65.9795 36.7045 65.9281 35.9996L65.7693 33.3856L65.7739 33.3902ZM62.9479 26.9298C64.9098 26.9298 66.0636 26.1176 66.0636 23.8443C66.0636 21.571 64.9098 20.7588 62.9479 20.7588H59.5193V26.9298H62.9479Z" fill="#003399"/>
<path d="M78.5258 38.2305C73.8173 38.2305 71.6172 35.2477 71.6172 30.4631C71.6172 25.6784 73.8173 22.7236 78.5258 22.7236C83.2343 22.7236 85.4063 25.7064 85.4063 30.4631C85.4063 35.2197 83.2062 38.2305 78.5258 38.2305ZM78.5258 25.8838C76.4845 25.8838 75.6997 27.3729 75.6997 30.4584C75.6997 33.5439 76.4845 35.061 78.5258 35.061C80.567 35.061 81.3284 33.5719 81.3284 30.4584C81.3284 27.3449 80.567 25.8838 78.5258 25.8838Z" fill="#003399"/>
<path d="M91.9046 32.844C91.9046 34.5431 92.4277 34.9352 94.2354 34.9352H95.7536V37.9974C95.2024 38.0487 93.9972 38.0767 93.2685 38.0767C89.3448 38.0767 87.8267 36.8724 87.8267 33.4741V26.2575H85.6826V23.0926H87.8267V18.9102H91.9092V23.0926H95.7582V26.2575H91.9092V32.8486L91.9046 32.844Z" fill="#003399"/>
<path d="M96.8506 23.0877H100.933V32.3722C100.933 34.202 101.695 35.0656 103.054 35.0656C104.754 35.0656 105.908 33.7586 105.908 31.4293V23.0877H109.99V37.8617H105.908V35.4017C105.385 37.1008 103.867 38.2258 101.774 38.2258C98.6069 38.2258 96.8553 36.2373 96.8553 32.4469V23.083L96.8506 23.0877Z" fill="#003399"/>
<path d="M111.327 33.3105H115.382V33.7026C115.382 34.6689 116.166 35.2991 117.474 35.2991C118.782 35.2991 119.544 34.6456 119.544 33.7306C119.544 32.8157 119.049 32.2929 117.554 32.0315L116.115 31.7701C112.948 31.1959 111.327 29.8096 111.327 27.2469C111.327 24.6842 113.499 22.7236 117.161 22.7236C120.824 22.7236 122.972 24.5815 122.972 27.1442V27.4056H118.918V27.1162C118.918 26.2806 118.343 25.6504 117.166 25.6504C115.989 25.6504 115.438 26.2246 115.438 27.0882C115.438 27.9517 115.989 28.3952 117.4 28.6566L118.866 28.918C122.188 29.5482 123.575 30.9065 123.575 33.5719C123.575 36.2373 121.272 38.2259 117.451 38.2259C113.63 38.2259 111.327 36.2093 111.327 33.5719V33.3105Z" fill="#003399"/>
<path d="M22.6269 8.49098C25.2194 5.72756 27.7651 2.89879 30.2548 0H21.6039C19.1796 2.7961 16.802 5.35413 14.4618 7.67409C12.1216 9.99406 9.69258 12.398 7.1655 14.8861V0.0513473H0V37.9083H7.21688V23.9419L10.1877 20.9731L24.1637 38.0624H33.1743L15.3586 15.9597C17.6101 13.7424 20.0344 11.2544 22.6269 8.49098Z" fill="#003399"/>
<path d="M45.0016 25.0153C43.5302 24.0537 41.8299 23.3209 39.9848 22.8868C39.9848 22.8868 38.6021 22.5553 36.9999 22.1306C35.977 21.8598 34.8652 21.5471 33.9637 21.2577C33.8703 21.225 33.7862 21.197 33.7021 21.169C33.0061 20.9216 32.1093 20.5248 32.1093 20.5248C30.2642 19.6799 29.0404 18.2048 29.0404 16.5244C29.0404 13.901 32.0345 11.7724 35.7294 11.7724C39.4243 11.7724 42.4184 13.901 42.4184 16.5244C42.4184 16.9445 42.339 17.3553 42.1942 17.7427H49.299C49.3504 17.3412 49.3737 16.9351 49.3737 16.5244C49.3737 10.0546 43.0958 4.8125 35.351 4.8125C27.6063 4.8125 21.333 10.0546 21.333 16.5244C21.333 20.114 23.2669 23.3255 26.3124 25.4728C28.0127 26.6725 30.0587 27.5407 32.3101 27.9561C32.3101 27.9561 35.9536 28.605 37.3082 29.0018C37.7006 29.1091 38.0509 29.2118 38.3592 29.3098C38.8264 29.4592 39.1954 29.5993 39.4897 29.7253C39.5924 29.772 39.6999 29.814 39.8026 29.8653C41.7738 30.8596 43.0817 32.6381 43.0817 34.664C43.0817 36.6899 41.7832 38.4497 39.8353 39.4486L45.4593 44.0045C48.6264 41.7592 50.6396 38.4077 50.6396 34.6686C50.6396 30.9296 48.4348 27.2606 45.0062 25.02L45.0016 25.0153Z" fill="#003399"/>
</g>
<defs>
<clipPath id="clip0_293_90">
<rect width="123.574" height="44" fill="white"/>
</clipPath>
</defs>
</svg>
