<svg width="148" height="62" viewBox="0 0 148 62" fill="none" xmlns="http://www.w3.org/2000/svg">
<g clip-path="url(#clip0_293_70)">
<path d="M50.2595 16.7759C68.6084 7.13897 93.531 -2.07005 114.421 1.16024C119.657 2.0859 125.671 4.20667 127.801 9.51651C129.004 12.8229 128.278 16.2022 126.799 19.293H127.986C129.365 16.0215 129.839 12.5756 128.567 9.21536C125.181 1.27119 113.654 0.0348706 106.088 0C84.9942 0.405767 64.1452 7.13263 45.9565 17.7079C45.1085 18.2247 44.2605 18.7509 43.4219 19.2898H45.8372C47.326 18.418 48.8053 17.5811 50.2595 16.7759Z" fill="black"/>
<path d="M66.2842 57.3558C54.6474 60.3928 40.9344 63.0524 29.1217 59.8634C25.1768 58.7253 21.1188 56.4682 19.5233 52.474C18.5119 49.8872 18.7475 47.1261 19.6018 44.5393H19.3788C18.559 47.1451 18.3706 49.8713 19.3851 52.5278C21.6056 57.9899 27.79 60.1423 33.1388 61.1694C44.2889 63.0715 55.7655 61.4547 66.6549 58.7538C78.5493 55.5933 90.4939 50.9175 101.308 44.5361H98.1827C87.7614 50.2296 76.4135 54.5218 66.2874 57.3527L66.2842 57.3558Z" fill="black"/>
<path d="M61.4159 26.3685L59.1074 27.2118L58.2719 29.5418L57.4365 27.2118L55.1279 26.3685L57.4365 25.5221L58.2719 23.1953L59.1074 25.5221L61.4159 26.3685Z" fill="#2888F4"/>
<path d="M12.4122 28.0518C12.1013 26.1783 10.8732 25.2431 8.72486 25.2431C7.30205 25.2431 6.21846 25.7313 5.47722 26.7077C4.73598 27.684 4.36536 29.1391 4.36536 31.076C4.36536 33.0129 4.75482 34.487 5.5369 35.4539C6.31897 36.4207 7.4591 36.9057 8.96042 36.9057C9.9969 36.9057 10.8324 36.6458 11.4668 36.1227C12.1013 35.5997 12.4499 34.8325 12.5096 33.8149H16.8722C16.7937 35.1432 16.4419 36.3193 15.8169 37.3496C15.1919 38.3798 14.2967 39.1914 13.1378 39.7842C11.9788 40.377 10.6094 40.6749 9.02952 40.6749C7.14187 40.6749 5.52119 40.3009 4.17063 39.5496C2.81692 38.8014 1.78358 37.7078 1.07375 36.2717C0.360775 34.8357 0.00585938 33.1017 0.00585938 31.0728C0.00585938 28.0296 0.775368 25.6711 2.31438 24.0004C3.8534 22.3298 6.01431 21.4961 8.7971 21.4961C10.3738 21.4961 11.7526 21.8131 12.9273 22.4439C14.102 23.0748 15.016 23.8927 15.6661 24.8912C16.3163 25.8898 16.6869 26.9454 16.7811 28.0518H12.4185H12.4122Z" fill="#121212"/>
<path d="M35.5417 40.2976H31.088L29.7185 36.4333H23.3143L21.9449 40.2976H17.4912L24.3571 21.8447H28.6726L35.5385 40.2976H35.5417ZM25.6825 29.7604L24.5456 32.9463H28.4905L27.3786 29.7604L26.5903 26.3874H26.4521L25.6857 29.7604H25.6825Z" fill="#121212"/>
<path d="M51.7354 37.1846C52.0432 37.9328 52.3856 38.5319 52.7562 38.9757C53.1268 39.4195 53.598 39.7999 54.1727 40.1106L50.4603 40.2976H49.3484C48.9464 40.0472 48.6009 39.7587 48.3151 39.4322C48.0292 39.1057 47.7685 38.6429 47.5393 38.0501L45.9154 34.1382C45.793 33.8719 45.6296 33.6754 45.4286 33.5422C45.2276 33.4091 44.8947 33.3425 44.4298 33.3425H42.4103V40.2976H38.0947V21.8447H45.3784C47.6209 21.8447 49.3955 22.3171 50.7021 23.2617C52.0087 24.2064 52.662 25.6298 52.662 27.535C52.662 28.5494 52.483 29.4434 52.128 30.2168C51.7731 30.9903 51.2894 31.599 50.677 32.0428C50.0645 32.4866 49.3798 32.7497 48.6229 32.829V32.8987C49.116 32.9463 49.5149 33.0794 49.8164 33.2981C50.1179 33.5169 50.3315 33.7737 50.454 34.0716L51.7292 37.1846H51.7354ZM45.1711 29.716C46.2547 29.716 47.0461 29.5638 47.5487 29.2595C48.0512 28.9552 48.3025 28.3814 48.3025 27.5382C48.3025 26.7425 48.0638 26.2067 47.5832 25.9341C47.1027 25.6615 46.3238 25.5252 45.2402 25.5252H42.4103V29.716H45.1711Z" fill="#121212"/>
<path d="M82.4121 40.2976V21.8447H95.5911V25.4966H86.7528V28.8918H95.5911V32.4517H86.7528V36.595H95.5911V40.2945H82.4121V40.2976Z" fill="#121212"/>
<path d="M113.061 37.1846C113.369 37.9328 113.711 38.5319 114.082 38.9757C114.452 39.4195 114.923 39.7999 115.495 40.1106V40.2976H111.629C110.881 40.2976 110.143 40.006 109.647 39.4417C109.647 39.4385 109.64 39.4354 109.637 39.4322C109.352 39.1057 109.091 38.6429 108.862 38.0501L107.238 34.1382C107.115 33.8719 106.952 33.6754 106.751 33.5422C106.55 33.4091 106.217 33.3425 105.752 33.3425H103.733V40.2976H99.417V21.8447H106.701C108.943 21.8447 110.718 22.3171 112.024 23.2617C113.331 24.2064 113.984 25.6298 113.984 27.535C113.984 28.5494 113.805 29.4434 113.45 30.2168C113.095 30.9903 112.612 31.599 111.999 32.0428C111.387 32.4866 110.702 32.7497 109.945 32.829V32.8987C110.438 32.9463 110.837 33.0794 111.139 33.2981C111.44 33.5169 111.654 33.7737 111.776 34.0716L113.051 37.1846H113.061ZM106.493 29.716C107.577 29.716 108.368 29.5638 108.871 29.2595C109.373 28.9552 109.625 28.3814 109.625 27.5382C109.625 26.7425 109.386 26.2067 108.905 25.9341C108.425 25.6615 107.646 25.5252 106.562 25.5252H103.733V29.716H106.493Z" fill="#121212"/>
<path d="M134.82 40.2976V21.8447H147.999V25.4966H139.161V28.8918H147.999V32.4517H139.161V36.595H147.999V40.2945H134.82V40.2976Z" fill="#121212"/>
<path d="M56.0258 34.094C56.0258 34.094 56.3053 40.2978 50.457 40.2978H56.2833C57.6936 40.2978 58.9562 39.4324 59.4838 38.1136C59.911 37.0453 60.2942 35.6537 60.2942 34.0908H56.0258V34.094Z" fill="#2888F4"/>
<path d="M116.239 34.0944C116.208 33.733 116.871 39.8829 111.475 40.2982H115.495H116.497C117.907 40.2982 119.17 39.4328 119.697 38.1141C120.125 37.0457 120.508 35.6541 120.508 34.0912H116.239V34.0944Z" fill="#2888F4"/>
<path d="M75.8946 21.8486L70.9163 35.6479L65.9412 21.8486H61.7168L68.0048 40.2984H73.7808L80.1159 21.8486H75.8946Z" fill="#121212"/>
<path d="M101.358 36.5986H95.5918V40.2981H101.358V36.5986Z" fill="#121212"/>
<path d="M124.271 33.0547C124.578 33.1434 125.191 33.3273 125.938 33.5841C125.926 33.5777 125.916 33.5746 125.904 33.5682C125.546 33.4319 124.999 33.2607 124.274 33.0547H124.271Z" fill="#121212"/>
<path d="M124.27 33.0544C124.135 33.0163 124.057 32.9941 124.057 32.9941C124.129 33.0163 124.201 33.0353 124.27 33.0544Z" fill="#121212"/>
<path d="M125.936 33.5811C126.312 33.7269 126.608 33.9044 126.815 34.1168C127.032 34.3355 127.138 34.624 127.138 34.9822C127.138 35.6067 126.89 36.0949 126.397 36.4468C125.901 36.7987 125.213 36.973 124.334 36.973C123.187 36.973 122.292 36.7321 121.642 36.2471C120.992 35.7621 120.612 35.0456 120.505 34.0946L116.306 34.1643C116.353 36.2407 117.072 37.8511 118.463 38.9987C119.855 40.1462 121.768 40.6503 124.334 40.6503C125.788 40.6503 127.057 40.3967 128.137 39.8895C129.221 39.3823 130.056 38.6722 130.644 37.7592C130.857 37.4263 131.03 37.0776 131.168 36.7099C130.832 35.4641 127.927 34.269 125.936 33.5842V33.5811Z" fill="#2888F4"/>
<path d="M131.039 32.3601C130.715 31.7356 130.188 31.1904 129.462 30.7212C128.734 30.252 127.754 29.8146 126.516 29.4088C125.696 29.1425 124.899 28.9016 124.126 28.6829C123.228 28.4166 122.581 28.2105 122.179 28.0615C121.777 27.9125 121.466 27.7382 121.252 27.5353C121.035 27.3324 120.929 27.0661 120.929 26.7396C120.929 26.2419 121.192 25.8393 121.717 25.535C122.241 25.2307 122.954 25.0785 123.85 25.0785C124.745 25.0785 125.451 25.2782 126.007 25.6745C126.563 26.0739 126.865 26.616 126.912 27.3007H131.202C131.155 25.4748 130.489 24.0514 129.208 23.0275C127.923 22.0067 126.139 21.4932 123.85 21.4932C121.56 21.4932 119.798 22.0004 118.513 23.0148C117.229 24.0292 116.588 25.4272 116.588 27.2056C116.588 28.033 116.767 28.7558 117.122 29.3708C117.477 29.9889 118.074 30.5468 118.909 31.0445C119.744 31.5454 120.888 32.0209 122.342 32.4742L124.06 32.9878C124.06 32.9878 124.138 33.01 124.274 33.048C124.999 33.2541 125.546 33.4253 125.904 33.5616C125.916 33.5679 125.926 33.5711 125.938 33.5774C127.929 34.2622 130.832 35.4573 131.171 36.7031C131.41 36.0596 131.529 35.359 131.529 34.6045C131.529 33.7296 131.366 32.9815 131.042 32.357L131.039 32.3601Z" fill="#121212"/>
</g>
<defs>
<clipPath id="clip0_293_70">
<rect width="148" height="62" fill="white"/>
</clipPath>
</defs>
</svg>
