<svg width="78" height="27" viewBox="0 0 78 27" fill="none" xmlns="http://www.w3.org/2000/svg">
<g clip-path="url(#clip0_200_87)">
<path d="M31.9456 0C31.5845 0 31.2181 0 30.8783 0.11954C30.6128 0.212515 30.3792 0.371901 30.1561 0.549882C30.0606 0.626918 29.965 0.706612 29.8721 0.786305C22.7197 6.94392 15.5699 13.1015 8.41754 19.2591C8.46267 13.0192 8.46798 6.77922 8.43347 0.539256C8.32727 0.624262 8.21842 0.706612 8.11222 0.791617C8.00602 0.876623 7.89983 0.958973 7.79097 1.04398C7.68478 1.12898 7.57858 1.21133 7.46973 1.29634C7.36353 1.38135 7.25733 1.4637 7.14848 1.5487C7.04228 1.63371 6.93608 1.71606 6.82723 1.80106C6.72103 1.88607 6.61484 1.96842 6.50598 2.05342C6.39979 2.13843 6.29359 2.22078 6.18474 2.30579C6.07588 2.39079 5.97234 2.47314 5.86349 2.55815C5.75464 2.64315 5.65109 2.7255 5.54224 2.81051C5.43605 2.89551 5.32985 2.97786 5.221 3.06287C5.1148 3.14787 5.0086 3.23022 4.89975 3.31523C4.79355 3.40024 4.68735 3.48259 4.5785 3.56759C4.4723 3.6526 4.36611 3.73495 4.25725 3.81995C4.15106 3.90496 4.04486 3.98731 3.93601 4.07231C3.82981 4.15732 3.72361 4.23967 3.61476 4.32468C3.50856 4.40968 3.40237 4.49203 3.29351 4.57704C3.18732 4.66204 3.08112 4.74439 2.97227 4.8294C2.86607 4.9144 2.75987 4.99675 2.65102 5.08176C2.54217 5.16676 2.43862 5.24911 2.32977 5.33412C2.22092 5.41913 2.11738 5.50148 2.00852 5.58648C1.89967 5.67149 1.79347 5.75384 1.68728 5.83884C1.58108 5.92385 1.47488 6.0062 1.36603 6.0912C1.25983 6.17621 1.15364 6.25856 1.04478 6.34357C0.938585 6.42857 0.832388 6.51092 0.723536 6.59593C0.617338 6.68093 0.511141 6.76328 0.402289 6.84829L0.242992 6.97314C0.229718 6.98377 0.216443 6.99439 0.203168 7.00502C0.192549 7.01299 0.179274 7.02096 0.173964 7.03158C0.168654 7.03955 0.171309 7.04752 0.173964 7.05549C0.173964 7.07143 0.173964 7.08737 0.173964 7.10331C0.173964 7.23878 0.173964 7.37426 0.173964 7.50974C0.173964 7.64522 0.173964 7.7807 0.173964 7.91617C0.173964 8.05165 0.173964 8.18713 0.173964 8.32261C0.173964 8.45809 0.173964 8.59357 0.173964 8.72904C0.173964 8.86452 0.173964 9 0.173964 9.13548C0.173964 9.27096 0.173964 9.40643 0.173964 9.54191C0.173964 9.67739 0.173964 9.81287 0.173964 9.94835C0.173964 10.0838 0.173964 10.2193 0.173964 10.3548C0.173964 10.4903 0.173964 10.6257 0.173964 10.7612C0.173964 10.8967 0.173964 11.0322 0.173964 11.1677C0.173964 11.3031 0.173964 11.4386 0.173964 11.5741C0.173964 11.7096 0.173964 11.845 0.173964 11.9805C0.173964 12.116 0.173964 12.2515 0.173964 12.387C0.173964 12.5224 0.173964 12.6579 0.173964 12.7934C0.173964 12.9289 0.173964 13.0643 0.173964 13.1998C0.173964 13.3353 0.173964 13.4708 0.173964 13.6063C0.173964 13.7417 0.173964 13.8772 0.173964 14.0127C0.173964 14.1482 0.173964 14.2836 0.173964 14.4191C0.173964 14.5546 0.173964 14.6901 0.173964 14.8256C0.173964 14.961 0.173964 15.0965 0.173964 15.232C0.173964 15.3675 0.173964 15.503 0.173964 15.6384C0.173964 15.7739 0.173964 15.9094 0.173964 16.0449C0.173964 16.1803 0.173964 16.3158 0.173964 16.4513C0.173964 16.5868 0.173964 16.7223 0.173964 16.8577C0.173964 16.9932 0.173964 17.1287 0.173964 17.2642C0.173964 17.3996 0.173964 17.5351 0.173964 17.6706C0.173964 17.8061 0.173964 17.9416 0.173964 18.077C0.173964 18.2125 0.173964 18.348 0.173964 18.4835C0.173964 18.6189 0.173964 18.7544 0.173964 18.8899C0.173964 19.0254 0.173964 19.1609 0.173964 19.2963C0.173964 19.4318 0.173964 19.5673 0.173964 19.7028C0.173964 19.8383 0.173964 19.9737 0.173964 20.1092C0.173964 20.2447 0.173964 20.3802 0.173964 20.5156C0.173964 20.6511 0.173964 20.7866 0.173964 20.9221C0.173964 21.0576 0.173964 21.193 0.173964 21.3285C0.173964 21.464 0.173964 21.5995 0.173964 21.7349C0.173964 21.8704 0.173964 22.0059 0.173964 22.1414C0.173964 22.2769 0.173964 22.4123 0.173964 22.5478C0.173964 22.6833 0.173964 22.8188 0.173964 22.9543C0.173964 23.0897 0.173964 23.2252 0.173964 23.3607C0.173964 23.4962 0.173964 23.6316 0.173964 23.7671C0.173964 23.9026 0.173964 24.0381 0.173964 24.1736C0.173964 24.309 0.173964 24.4445 0.173964 24.58C0.173964 24.7155 0.173964 24.8509 0.173964 24.9864C0.173964 25.1219 0.173964 25.2574 0.173964 25.3929C0.173964 25.5044 0.173964 25.616 0.173964 25.7276C0.173964 26.0702 0.192549 26.4475 0.434148 26.6892C0.678402 26.9336 1.06071 26.9495 1.40585 26.9495C4.01035 26.9548 6.61218 26.9602 9.21667 26.9655C9.61226 26.9655 10.0185 26.9655 10.3902 26.822C10.7326 26.6892 11.0167 26.4448 11.2955 26.2057C14.046 23.8335 16.7965 21.464 19.5444 19.0918C21.4931 21.4613 23.4392 23.8282 25.3879 26.1978C25.5897 26.4448 25.8047 26.6998 26.0941 26.8326C26.3702 26.9575 26.6808 26.9602 26.9835 26.9602C29.3942 26.9602 31.8049 26.9575 34.2182 26.9548C34.7333 26.9548 35.3625 26.8858 35.5722 26.4129C35.7713 25.9613 35.4395 25.4619 35.1235 25.0821C32.0066 21.2993 28.8897 17.5139 25.7729 13.7311C27.8092 11.9832 29.8429 10.2352 31.8792 8.48465C31.8819 8.47668 31.8872 8.46871 31.8898 8.46074L40.9193 0.802243L41.5325 0.273613L41.8485 0C38.7688 0 34.9218 0 31.9429 0H31.9456Z" fill="black"/>
<path d="M77.7383 17.8275C77.6693 17.5991 77.417 17.3786 77.2577 17.2139C76.8967 16.8393 76.4772 16.5285 76.1108 16.1593C75.5055 15.551 74.8895 14.9506 74.2656 14.3556C72.9833 13.1336 71.6691 11.9462 70.3549 10.7561C70.1 10.525 69.8053 10.3311 69.4867 10.2009C69.3912 10.1611 69.2903 10.1318 69.1894 10.1026C68.746 9.90605 65.1247 9.94324 64.6388 9.94324C58.7714 9.95121 55.9784 9.95918 50.2491 9.96715H48.0508L46.718 8.76113L48.0641 7.52057H49.5429C49.7685 7.52057 50.0075 7.52057 50.2172 7.52057C58.8006 7.5312 65.3928 7.54448 73.9736 7.55511L73.9815 7.53651L66.3061 0.0134898C63.1574 0.0134898 60.006 0.0134898 56.8572 0.0134898C55.02 0.0134898 53.1828 0.0134898 51.3456 0.0134898C50.427 0.0134898 49.5084 0.0134898 48.5897 0.0134898C47.8517 0.0134898 46.1366 -0.0449517 45.3879 0.0958393C45.2259 0.127716 44.9127 0.284446 44.7719 0.403986C43.1657 1.7508 42.2418 2.7443 40.5904 4.25316C39.6453 5.11916 38.8275 5.7992 37.9488 6.72896C37.5293 7.17258 37.1018 7.52323 36.6478 7.94826C36.0903 8.46892 36.1036 8.73456 36.2337 9.16756C36.3027 9.39602 36.5496 9.6165 36.685 9.80245C36.9956 10.2328 37.4257 10.6977 37.7523 11.0935C38.3019 11.7576 38.8143 12.3739 39.3798 13.0592C40.3409 14.2201 40.9515 14.9559 42.1011 16.2363C42.1329 16.2709 42.1728 16.2974 42.2073 16.3293C42.2179 16.3373 42.2285 16.3452 42.2418 16.3532C42.4622 16.5312 42.7064 16.6826 42.9692 16.7915C43.4445 16.9881 43.9728 16.9908 44.4852 16.9881C44.4932 16.9881 44.5011 16.9881 44.5065 16.9881C45.7596 17.0465 47.4906 17.0465 47.8145 17.0465C53.6819 17.0386 57.9882 17.0306 63.7176 17.0226H65.8999L67.2486 18.2287L65.8867 19.4692H64.4238C64.1981 19.4692 63.9592 19.4692 63.7494 19.4692C60.3617 19.4639 57.0882 19.4612 53.8359 19.4559L33.7593 19.4267L33.7699 19.4373C33.7699 19.4373 33.7646 19.4373 33.7593 19.4373C33.7646 19.4427 33.7672 19.4453 33.7726 19.4506C33.7805 19.4586 33.7858 19.4639 33.7938 19.4719C33.7991 19.4772 33.8044 19.4825 33.8097 19.4878L39.7302 26.6257C39.9293 26.8647 40.2187 27.0029 40.5214 27.0029L53.8386 26.9816C53.8837 26.9816 53.9262 26.9816 53.9713 26.9816C55.02 26.9816 56.066 26.9816 57.1147 26.9816C58.952 26.9816 60.7892 26.9816 62.6237 26.9816C63.5423 26.9816 64.4609 26.9816 65.3796 26.9816C66.1176 26.9816 67.8327 27.0401 68.5814 26.8993C68.7434 26.8674 69.0566 26.7107 69.1973 26.5911C70.8036 25.2443 71.7275 24.2508 73.3789 22.7419C74.324 21.8759 75.1418 21.1959 76.0205 20.2661C76.44 19.8225 76.8675 19.4719 77.3215 19.0468C77.879 18.5262 77.8657 18.2605 77.7356 17.8275H77.7383Z" fill="black"/>
</g>
<defs>
<clipPath id="clip0_200_87">
<rect width="77.625" height="27" fill="white" transform="translate(0.1875)"/>
</clipPath>
</defs>
</svg>
