<svg width="157" height="36" viewBox="0 0 157 36" fill="none" xmlns="http://www.w3.org/2000/svg">
<g clip-path="url(#clip0_563_176)">
<path d="M15.3276 22.7266C15.3276 22.7266 8.80083 24.815 8.48875 16.9515L8.41593 7.90591C8.41593 7.90591 8.7717 5.33145 6.23756 3.62292L0 0L0.10819 14.4683C0.10819 14.4683 -0.133157 20.2115 5.27218 23.3612C10.6775 26.5108 15.3255 22.7266 15.3255 22.7266H15.3276Z" fill="url(#paint0_linear_563_176)"/>
<path d="M9.9679 11.168C9.9679 11.168 5.12224 15.9943 11.5366 20.0969C11.572 20.0736 11.6053 20.0523 11.6407 20.029L19.3222 15.5083C19.3222 15.5083 21.694 14.5553 21.9021 11.4651L21.9208 4.14502L9.9679 11.1701" fill="url(#paint1_linear_563_176)"/>
<path d="M21.9457 28.6778C21.721 25.5876 19.345 24.6473 19.345 24.6473L11.6407 20.1648C11.6053 20.1415 11.5699 20.1203 11.5345 20.0969C5.12014 15.9943 9.9658 11.168 9.9658 11.168C9.9658 11.168 9.13773 11.5946 8.12865 12.45C6.67849 13.7255 4.68738 16.1811 4.59375 20.0927C4.69362 24.0509 6.72842 26.5172 8.19315 27.7842C9.02538 28.5037 9.67243 28.8391 9.67243 28.8391L21.9978 36L21.9437 28.6799L21.9457 28.6778Z" fill="url(#paint2_linear_563_176)"/>
</g>
<path d="M33.3105 24V11.2734H35.9473V16.916H36.123L40.7461 11.2734H43.9277L39.1816 16.9688L43.9805 24H40.8164L37.2832 18.7441L35.9473 20.3613V24H33.3105ZM52.0488 14.9121C51.9434 13.9102 51.1348 13.3125 49.8516 13.3125C48.5156 13.3125 47.7773 13.9277 47.7598 14.7715C47.7422 15.6855 48.709 16.1074 49.7988 16.3535L50.9414 16.6348C53.1211 17.127 54.7559 18.2344 54.7559 20.3613C54.7559 22.6992 52.9277 24.1758 49.834 24.1758C46.7578 24.1758 44.7891 22.752 44.7188 20.0273H47.2852C47.373 21.3105 48.3926 21.9609 49.7988 21.9609C51.1875 21.9609 52.084 21.3105 52.084 20.3613C52.084 19.5 51.293 19.0957 49.9043 18.7441L48.5156 18.4102C46.3711 17.8828 45.0527 16.8105 45.0527 14.9473C45.0527 12.627 47.0918 11.0977 49.8691 11.0977C52.6816 11.0977 54.5449 12.6621 54.5801 14.9121H52.0488ZM62.7539 24H59.9062L64.3184 11.2734H67.7109L72.1055 24H69.2754L68.3262 21.0645H63.7207L62.7539 24ZM64.3887 19.0078H67.6582L66.0586 14.1387H65.9707L64.3887 19.0078ZM81.4219 11.2734H84.0762V19.5352C84.0762 22.3301 81.9668 24.1758 78.8027 24.1758C75.6387 24.1758 73.5469 22.3301 73.5469 19.5352V11.2734H76.1836V19.3242C76.1836 20.7832 77.2207 21.8555 78.8027 21.8555C80.4023 21.8555 81.4219 20.7832 81.4219 19.3242V11.2734ZM85.7285 13.4531V11.2734H96.1523V13.4531H92.25V24H89.6309V13.4531H85.7285ZM108.879 17.6367C108.879 21.7852 106.295 24.1758 102.938 24.1758C99.5449 24.1758 96.9785 21.7676 96.9785 17.6367C96.9785 13.4883 99.5449 11.0977 102.938 11.0977C106.295 11.0977 108.879 13.4883 108.879 17.6367ZM106.189 17.6367C106.189 14.9121 104.906 13.4355 102.938 13.4355C100.969 13.4355 99.668 14.9121 99.668 17.6367C99.668 20.3613 100.969 21.8379 102.938 21.8379C104.906 21.8379 106.189 20.3613 106.189 17.6367ZM110.777 24V11.2734H115.77C118.67 11.2734 120.322 13.0488 120.322 15.5625C120.322 18.1113 118.635 19.8516 115.699 19.8516H113.414V24H110.777ZM113.414 17.7246H115.277C116.842 17.7246 117.598 16.8457 117.598 15.5625C117.598 14.2969 116.842 13.4355 115.277 13.4355H113.414V17.7246ZM121.992 24V11.2734H124.629V21.8203H130.113V24H121.992ZM134.279 24H131.432L135.844 11.2734H139.236L143.631 24H140.801L139.852 21.0645H135.246L134.279 24ZM135.914 19.0078H139.184L137.584 14.1387H137.496L135.914 19.0078ZM155.689 11.2734V24H153.404L147.814 15.9141H147.709V24H145.072V11.2734H147.393L152.947 19.3594H153.07V11.2734H155.689Z" fill="white"/>
<defs>
<linearGradient id="paint0_linear_563_176" x1="1.86184" y1="2.44314" x2="8.25926" y2="20.3286" gradientUnits="userSpaceOnUse">
<stop stop-color="#CFCDCE"/>
<stop offset="1" stop-color="white"/>
</linearGradient>
<linearGradient id="paint1_linear_563_176" x1="6.59113" y1="18.3729" x2="18.1017" y2="11.4794" gradientUnits="userSpaceOnUse">
<stop stop-color="#CFCDCE"/>
<stop offset="1" stop-color="white"/>
</linearGradient>
<linearGradient id="paint2_linear_563_176" x1="20.8326" y1="30.9742" x2="7.20636" y2="18.1775" gradientUnits="userSpaceOnUse">
<stop stop-color="#CFCDCE"/>
<stop offset="1" stop-color="white"/>
</linearGradient>
<clipPath id="clip0_563_176">
<rect width="22" height="36" fill="white"/>
</clipPath>
</defs>
</svg>
